<svg xmlns="http://www.w3.org/2000/svg" viewBox="0 0 149.09 67.29"><defs><style>.cls-1,.cls-2,.cls-7,.cls-8{fill:#fff;}.cls-1,.cls-10,.cls-5{fill-rule:evenodd;}.cls-2,.cls-3,.cls-4,.cls-8{stroke:#231f20;}.cls-2,.cls-3,.cls-4,.cls-6,.cls-7,.cls-8{stroke-miterlimit:10;}.cls-2,.cls-3,.cls-4{stroke-width:0.5px;}.cls-3{fill:none;}.cls-6,.cls-7{stroke:#000;}.cls-6{stroke-width:0.1px;}.cls-7,.cls-8{stroke-width:1px;}.cls-9{fill:#231f20;}.cls-10,.cls-11{fill:#d71f27;}</style></defs><title>loogo</title><g id="Capa_2" data-name="Capa 2"><g id="Layer_1" data-name="Layer 1"><polygon class="cls-1" points="57.9 49.83 55.21 16.74 56.77 10.25 62.39 5.12 67.32 2.81 71.47 1.26 77.8 1.26 82.67 3.4 86.22 3.84 88.13 7.78 91.39 13.97 92.43 18.09 92.43 21.35 89.47 23.28 57.28 21.62 57.9 49.83"/><text></text><path class="cls-2" d="M104.53,58.51V56.73h-60v1.78a2.56,2.56,0,0,0,0,5.12V65.4h60V63.62a2.54,2.54,0,0,0,2.41-2.56"/><path class="cls-3" d="M104.53,65.41V63.62a2.56,2.56,0,0,0,0-5.11V56.73h-60v1.78a2.56,2.56,0,0,0,0,5.12"/><ellipse class="cls-4" cx="44.58" cy="61.08" rx="0.77" ry="0.79"/><ellipse class="cls-4" cx="104.47" cy="61.08" rx="0.77" ry="0.79"/><polygon class="cls-5" points="44.97 39.52 33.64 43.92 32.64 54.62 42.76 57.35 58.55 57.39 80 58.31 88.23 58.66 100.01 57.77 112.95 57.72 111.64 44.62 109.44 42.64 90.97 41.14 78.81 39.41 70.59 39.64 45.8 39.64 44.97 39.52"/><path class="cls-5" d="M135.12,17.43c-3.18,2.28-6.07,5-9.21,7.33-3.86,2.88-8.09,4.68-13.13,3.72.12-5.22.21-10.36-5.15-12.9-5.52-2.62-9.08,1.83-13.09,4.66-1.46-8.4-2.59-9.69-8.18-16.92C81.24-3.27,74.44,2.8,69,0,58.28,2.15,55.33,10.81,53,20.2,49.13,17,45.62,12.78,40.13,15.5s-5,8.13-4.89,14.46c-4.5-1.8-8.4-2.84-11.73-4.83-3.79-2.27-7-5.58-10.63-8.11C8.93,14.3,4.63,12.82,0,14.94c3.42,2.12,7.33,3.6,9.91,6.35,5.37,5.72,9.1,13,17.45,17.13l-.57.1a21,21,0,0,1,3.7,1.42l2.11.38c1,.17,2,.41,2.94.58l.84.11.55.06c4.64.38,9.32.31,14,.46,9.57.31,19.13-.05,28.7-.11,1.72,0,3.44,0,5.16,0a98.69,98.69,0,0,1,10-.87c4.7-.2,9.36-.17,14.05-.06a71.17,71.17,0,0,0,7.76-.11l.83-.08c.34-.06.83-.14,1.06-.19.78-.17,1.55-.37,2.31-.59.59-.31,1.19-.6,1.8-.87,4-4.08,8.53-8.08,12.18-12.75,3.8-4.87,7.54-9.24,14-10.09.1,0,.15-.43.32-.95C143.87,12.9,139.31,14.42,135.12,17.43ZM64.93,3.2a24.68,24.68,0,0,1,17.86-.33c5.14,2.11,8.68,8.26,9.76,14.69.35,2.08-2.48,4.37-4.76,3.76a55.42,55.42,0,0,0-27.45-.17c-1.49.35-3.32-.76-5-1.21C55.15,12,59.22,5.8,64.93,3.2Zm24.49,21c-10.32-2.58-20.62-2.9-30.91.18C64.32,20.14,82,19.92,89.41,24.24ZM49.65,37.56C30.19,42.82,18.21,32.8,9.24,16.82c6.07,4.12,11.66,9.65,18.34,12s14.5,1.5,22.07,2.08Zm43.66-8.41c-3.76,1.77-7.2,4.31-11,5.86-7.63,3.08-15,1.89-21.95-2.45-1.94-1.22-3.78-2.64-5.79-3.72-2.51-1.35-5-2-8-.77-2.34.95-5.26.48-7.92.54-.43,0-1.27-.54-1.25-.78.21-2.77,0-5.75,1-8.24s3.59-4.07,6.33-2.78a37,37,0,0,1,7.25,4.89c3.82,3.08,7.48,6.38,11.21,9.58l.69-.81L59.1,26.26A41.64,41.64,0,0,1,89,27.18L85.3,29.26l1.07,1.16c2.95-2.64,5.9-5.27,8.84-7.92.9-.81,1.76-1.69,2.63-2.54,2.79-2.71,5.9-4.57,9.74-2.4,3,1.68,4,6.17,2.52,11.59-3.65-.5-7.17-1.23-10.71-1.37A13.69,13.69,0,0,0,93.31,29.16Zm38.23-1.35c-5.45,7.14-12.27,11.25-21.47,10.7-4-.24-8,0-12,0V30.86c7.76-.57,16,.35,23-2.11s12.88-8.28,20.2-13.27C137.54,20.25,134.47,24,131.54,27.81Z"/><path class="cls-1" d="M59.1,26.26A41.64,41.64,0,0,1,89,27.18L85.3,29.26l1.07,1.16c2.95-2.64,5.9-5.27,8.84-7.92.9-.81,1.76-1.69,2.63-2.54,2.79-2.71,5.9-4.57,9.74-2.4,3,1.68,4,6.17,2.52,11.59-3.65-.5-7.17-1.23-10.71-1.37a13.69,13.69,0,0,0-6.08,1.37c-3.76,1.77-7.2,4.31-11,5.86-7.63,3.08-15,1.89-21.95-2.45-1.94-1.22-3.78-2.64-5.79-3.72-2.51-1.35-5-2-8-.77-2.34.95-5.26.48-7.92.54-.43,0-1.27-.54-1.25-.78.21-2.77,0-5.75,1-8.24s3.59-4.07,6.33-2.78a37,37,0,0,1,7.25,4.89c3.82,3.08,7.48,6.38,11.21,9.58"/><path class="cls-1" d="M141.35,15.48c-3.81,4.77-6.89,8.49-9.81,12.33-5.45,7.14-12.27,11.25-21.47,10.7-4-.24-8,0-12,0V30.86c7.76-.57,16,.35,23-2.11S134,20.47,141.35,15.48Z"/><path class="cls-1" d="M49.65,37.56C30.19,42.82,18.21,32.8,9.24,16.82c6.07,4.12,11.66,9.65,18.34,12s14.5,1.5,22.07,2.08Z"/><path class="cls-1" d="M58.5,24.41c5.82-4.27,23.49-4.5,30.91-.18C79.1,21.66,68.79,21.33,58.5,24.41Z"/><path class="cls-6" d="M38.48,46a4.11,4.11,0,0,0,.85-.54,1.92,1.92,0,0,0,.83-1.37L42.57,46l-2-1.92A3.66,3.66,0,0,0,42.52,43v0a4.08,4.08,0,0,1-2.14-1.06A6,6,0,0,0,38,40.69a1.89,1.89,0,0,1-3.07-.18l-.18.05a6,6,0,0,0-2.42,1.06,4.57,4.57,0,0,0-1.79,3.73v.12a4.81,4.81,0,0,0,1.65,3.88,10.16,10.16,0,0,0,2,1.24,4.74,4.74,0,0,1,1.14.55,2.07,2.07,0,0,1,.23,1,2.48,2.48,0,0,1,1-.26,2.75,2.75,0,0,1,.73.12,1.65,1.65,0,0,1,1.36,1.7,1.83,1.83,0,0,1-1.5,1.89H37.1a.84.84,0,0,1-.71-.48.92.92,0,0,1-.76.45,1.81,1.81,0,0,1-1-.37A2.67,2.67,0,0,1,33.29,53s0-.18.06-.49h0a2.32,2.32,0,0,0-1.46,2v.13l-.32,0h-.1a3.76,3.76,0,0,0-2.22,1.28v0a8,8,0,0,1,1.92.84,11.16,11.16,0,0,0,1.22,1.06,5.89,5.89,0,0,0,1.44.67,15.94,15.94,0,0,1,1.57.39,1.84,1.84,0,0,1,1,.67h0a1.59,1.59,0,0,1,.87-.76A14.16,14.16,0,0,0,39,58.4a5.39,5.39,0,0,0,.77-9.58q-1.52-.73-1.52-1.44s0,0,0-.07l0,0a2.65,2.65,0,0,1-1.11.3l-.3,0q-2.74-.67-2.74-2.23V45.2a1.59,1.59,0,0,1,.4-1,1.47,1.47,0,0,1,.86-.46c.24,0,.48.17.72.52h0a.88.88,0,0,1,.75-.49,1.71,1.71,0,0,1,.88.34q.8.45.8,1t0,.77Z"/><path class="cls-6" d="M52.65,40.5h.25a2,2,0,0,1,1.59.71,1.58,1.58,0,0,1,.89-.52,4.38,4.38,0,0,1,.71-.11,1.55,1.55,0,0,1,1.09.34,2.15,2.15,0,0,0-.69,1.19,2.05,2.05,0,0,0-.06.46v2.19q0,.66-.05,2.45a2.6,2.6,0,0,0,1,2.41h0a1.59,1.59,0,0,0-.72.7A4.39,4.39,0,0,0,56.41,52c0,.35,0,.62,0,.82v3.84a1.93,1.93,0,0,0,.71,1.53,1.78,1.78,0,0,1-1.05.41h-.22a1.94,1.94,0,0,1-1.3-.52,1.74,1.74,0,0,1-1.26.46A2.74,2.74,0,0,1,52,58.27a2.16,2.16,0,0,0,.7-1.74V51.59a1.17,1.17,0,0,0-.25-.88,1.48,1.48,0,0,0-.72-.14,1.5,1.5,0,0,0-1.36.76h-.07A1.26,1.26,0,0,0,49,50.57c-.56,0-.91.14-1.05.41a6.38,6.38,0,0,0-.1,1.49q0,1.06,0,1.93c0,.61,0,1.42,0,2.43a1.85,1.85,0,0,0,.7,1.61,1.65,1.65,0,0,1-.92.19h0A1.92,1.92,0,0,1,45.94,58v0h0a1.69,1.69,0,0,1-1.41.66h-.26a2.27,2.27,0,0,1-.92-.22v-.05A1.81,1.81,0,0,0,44,57q0-3.12,0-4.89v-.7a2,2,0,0,0-1-1.82.65.65,0,0,0-.18-.07v0l.37-.22q.77-.77.77-3.35v-3.4a2,2,0,0,0-.92-1.78v0a3,3,0,0,1,1-.17,2,2,0,0,1,1.72.6,2.12,2.12,0,0,1,1.69-.61h0a2.25,2.25,0,0,1,1.11.25h0a2.27,2.27,0,0,0-.53.7,3.35,3.35,0,0,0-.34,1.11v2.71c0,.51,0,1.07,0,1.65a.66.66,0,0,0,.54.65,2,2,0,0,0,.38.05H49a1.28,1.28,0,0,0,1.3-.7h0a1,1,0,0,0,1.09.7h.31q.81,0,.81-.88V42.63a2.22,2.22,0,0,0-1.05-1.78A1.82,1.82,0,0,1,52.65,40.5Z"/><path class="cls-6" d="M70,40H70a3.55,3.55,0,0,1,.11.83v.11a3.16,3.16,0,0,1-.44,1.57,2.06,2.06,0,0,1,.42,1.33c0,.42,0,.69,0,.81l0,.1h0a3.79,3.79,0,0,0-1.92-.65H64.82q-1.35,0-1.63.66a2.67,2.67,0,0,0-.07.66v2.4l.1,0h.34q1.47,0,1.81-.57a2,2,0,0,0,.46-.57,1.31,1.31,0,0,1,.33.94,2.58,2.58,0,0,1-.62,1.63,2.52,2.52,0,0,1,.53,1.67,3.28,3.28,0,0,1-.16,1h0a2.29,2.29,0,0,0-2-.83h-.69a0,0,0,0,0,0,0V54A1.19,1.19,0,0,0,64,55.28l.27,0,.5,0H69a2.69,2.69,0,0,0,1.79-.73,6.44,6.44,0,0,1,.06,1.08v0a1.77,1.77,0,0,1-.49,1.23,1.83,1.83,0,0,1,.4.82,10,10,0,0,1,.06,1.24v.11a2.89,2.89,0,0,0-1.63-.44H63.9a3.23,3.23,0,0,1-2.22-.92,1.71,1.71,0,0,1-1.6.83h-.17a5.62,5.62,0,0,1-1.27-.16v0a2.6,2.6,0,0,0,.64-1.84V51.8a2.53,2.53,0,0,0-1.15-2.45l0-.06a2.16,2.16,0,0,0,1.17-1.8V44a5.5,5.5,0,0,0-.81-2.86,2.7,2.7,0,0,1,.78-.09h.2a2.88,2.88,0,0,1,2.11.65,3.2,3.2,0,0,1,2.27-.91l.78,0,3.15,0h.4A3.16,3.16,0,0,0,70,40Z"/><path class="cls-6" d="M72.63,40.42h.22a2.75,2.75,0,0,1,2,.76,4.82,4.82,0,0,1,2.74-.6h.27a10.55,10.55,0,0,1,4.27.6,4,4,0,0,1,2.06,2c.06.17.21.71.43,1.62a1.74,1.74,0,0,0,.87.93v0A2.09,2.09,0,0,0,84.57,47a4.46,4.46,0,0,1-.87,2.09,4.6,4.6,0,0,1-1.55,1.19,2.82,2.82,0,0,1-1.36.32h-.23a1.71,1.71,0,0,1,.9.39,6.75,6.75,0,0,1,.92,1.79,2.09,2.09,0,0,0,1,.95h0a1.59,1.59,0,0,0-.18.66v.08a8.53,8.53,0,0,0,1.22,2.86,5.33,5.33,0,0,0,1,1.49,7.66,7.66,0,0,0,2.24,1.39,1.9,1.9,0,0,0,.48.22v0a3.82,3.82,0,0,1-2.29.59h-.15a5.85,5.85,0,0,1-4.27-1.59,6.68,6.68,0,0,1-1-2s-.24-.5-.66-1.47a1,1,0,0,0-.84-.45h0v0a1,1,0,0,0,.2-.58v-.09a7.89,7.89,0,0,0-.88-2.31,1.92,1.92,0,0,0-.67-.92,2,2,0,0,0-1.21-.41v5.35a2.34,2.34,0,0,0,.69,2v.06a1.67,1.67,0,0,1-.87.2,2.61,2.61,0,0,1-1.76-.56,2.58,2.58,0,0,1-1.65.4,4.36,4.36,0,0,1-.85-.07v0a2.56,2.56,0,0,0,.65-1.82V52.92c0-.48,0-1.12,0-1.91a2,2,0,0,0-.83-1.68v0a1.93,1.93,0,0,0,.85-1.53q0-.73,0-1.42V43a3.91,3.91,0,0,0-.81-2.49h0A3.35,3.35,0,0,1,72.63,40.42Zm3.76,4.25v3.67h1.43A3.17,3.17,0,0,0,80,47.82a1.69,1.69,0,0,0,.69-1l0-.22a.92.92,0,0,0-.6-.81,1.7,1.7,0,0,0,.44-1q0-.65-.84-1.09A4.19,4.19,0,0,0,78,43.39h-.37q-.86,0-1.09.43A2.16,2.16,0,0,0,76.39,44.67Z"/><path class="cls-6" d="M88.11,40.62l.11,0h.15a2.52,2.52,0,0,1,1.74.61,2.48,2.48,0,0,1,1.73-.64h.27a5,5,0,0,1,1.95.42v.05a2.94,2.94,0,0,0-1.78,1.14,1.74,1.74,0,0,0-.26.83v4.85a1.74,1.74,0,0,0,.91,1.63v0a1.5,1.5,0,0,0-.91,1.5v5.19a2.41,2.41,0,0,0,1.33,1.94,2,2,0,0,0,.7.25v0a2.59,2.59,0,0,1-1.32.27h-.31A2.76,2.76,0,0,1,90.21,58c0,.17-.2.38-.59.63a2.52,2.52,0,0,1-1.22.3H88.1a5,5,0,0,1-1.84-.41v0a2.9,2.9,0,0,0,1.41-.76,2,2,0,0,0,.56-1.53V51.43c0-.76-.09-1.22-.28-1.4a2.55,2.55,0,0,0-.62-.49,1.84,1.84,0,0,0,.77-.93A6.53,6.53,0,0,0,88.24,47V43.78c0-.94-.1-1.49-.31-1.67a3.2,3.2,0,0,0-1.58-1h-.09v0a3.54,3.54,0,0,1,1.79-.42S88.11,40.64,88.11,40.62Z"/><path class="cls-6" d="M106,42.13h0a11.68,11.68,0,0,1-1.41-.56,1.73,1.73,0,0,1-.72-.76H99.91a8.62,8.62,0,0,0-1,.06,2.94,2.94,0,0,0-1.62.83l-.23-.23a4.29,4.29,0,0,0-2.35-.79h0c-.23,0-.34,0-.34.06h0c.06.11.09.16.11.16a7.05,7.05,0,0,1,1,3.1v3.42a2.15,2.15,0,0,1-1.16,1.79v0a2.55,2.55,0,0,1,1.16,2.45v4.69a1,1,0,0,1,0,.21,3.55,3.55,0,0,1-.87,1.8v0a4.11,4.11,0,0,0,1,.11h.17a2,2,0,0,0,1.92-1l0,.12a2.1,2.1,0,0,0,1.81.88h.32a1.4,1.4,0,0,0,.81-.2h0s-.22-.17-.53-.5a4.15,4.15,0,0,1-.76-2.4q0-1.12,0-1.75V51h.83a2.29,2.29,0,0,1,1.87.77,5.26,5.26,0,0,0,.23-1.39v-.15a1.09,1.09,0,0,0-.59-1,2.55,2.55,0,0,0,.61-1.57,1.35,1.35,0,0,0-.32-1,2.31,2.31,0,0,1-.43.54c-.24.4-.84.6-1.81.6l-.47,0V45.42a2.16,2.16,0,0,1,.12-.8c.23-.37.76-.56,1.61-.56l1.84,0,1.38,0a3.88,3.88,0,0,1,1.94.65l0,0c0-.48,0-.76,0-.83a2,2,0,0,0-.42-1.36C105.86,42.37,105.92,42.25,106,42.13Z"/><path class="cls-6" d="M118.48,40.74a2.44,2.44,0,0,0-.12-.76,3.28,3.28,0,0,1-1.86.82h-4.35a8.57,8.57,0,0,0-1,.06,2.94,2.94,0,0,0-1.62.83l-.23-.23-.44-.26a2,2,0,0,1-1.54.75l-.13.07a5.46,5.46,0,0,1,.48,2v3.42a2.15,2.15,0,0,1-1.16,1.79v0a2.55,2.55,0,0,1,1.16,2.45v4.69a1,1,0,0,1,0,.21,3.52,3.52,0,0,1-.87,1.8v0a4.11,4.11,0,0,0,1,.11H108a2,2,0,0,0,1.92-1l0,.12a2.1,2.1,0,0,0,1.81.88H112a1.4,1.4,0,0,0,.81-.2h0s-.22-.17-.53-.5a4.15,4.15,0,0,1-.76-2.4q0-1.12,0-1.75V51h.83a2.29,2.29,0,0,1,1.87.77,5.25,5.25,0,0,0,.23-1.39v-.15a1.09,1.09,0,0,0-.59-1,2.55,2.55,0,0,0,.61-1.57,1.35,1.35,0,0,0-.32-1,2.31,2.31,0,0,1-.43.54c-.24.4-.84.6-1.81.6l-.46,0,2.28-.57c0-.33-2.24-2.35-2.15-2.55q.34-.56,1.6-.56l1.84,0,1.39,0a3.88,3.88,0,0,1,1.93.65l0,0c0-.48,0-.76,0-.83A2,2,0,0,0,118,42.5a3.14,3.14,0,0,0,.44-1.54Z"/><path class="cls-7" d="M34.47,39.81a2.55,2.55,0,0,0,1.39.69,6.23,6.23,0,0,1,3,1.38A4.17,4.17,0,0,0,41,43v0a3.72,3.72,0,0,1-2,1.07H38.6a2,2,0,0,1-.85,1.39,4.33,4.33,0,0,1-.87.54v-.15c0-.23,0-.49,0-.78s-.27-.68-.81-1a1.75,1.75,0,0,0-.9-.34.9.9,0,0,0-.76.49h0c-.25-.35-.5-.53-.74-.53a1.48,1.48,0,0,0-.87.47,1.61,1.61,0,0,0-.41,1v.13q0,1.58,2.8,2.26l.3,0a2.68,2.68,0,0,0,1.14-.3l0,0s0,.08,0,.08q0,.72,1.55,1.46a5.46,5.46,0,0,1-.79,9.73,14.79,14.79,0,0,1-1.75.42,1.63,1.63,0,0,0-.89.77h0a1.88,1.88,0,0,0-1-.68,15.85,15.85,0,0,0-1.6-.39,6.11,6.11,0,0,1-1.47-.68A11.61,11.61,0,0,1,29.41,57a8.26,8.26,0,0,0-2-.86v0a3.86,3.86,0,0,1,2.26-1.3h.1l.32,0V54.7a2.35,2.35,0,0,1,1.49-2h0c0,.31-.06.48-.06.49A2.7,2.7,0,0,0,33,55.33a1.86,1.86,0,0,0,1,.38.94.94,0,0,0,.77-.45.86.86,0,0,0,.72.49h.08a1.87,1.87,0,0,0,1.54-1.92,1.67,1.67,0,0,0-1.39-1.73,2.85,2.85,0,0,0-.75-.13,2.52,2.52,0,0,0-1,.27,2.09,2.09,0,0,0-.24-1,4.67,4.67,0,0,0-1.16-.56,10.53,10.53,0,0,1-2-1.26A4.89,4.89,0,0,1,28.8,45.5v-.13a4.64,4.64,0,0,1,1.82-3.79,6.13,6.13,0,0,1,2.47-1.07A2.8,2.8,0,0,0,34.47,39.81Z"/><path class="cls-7" d="M51.33,40.45h.25a2,2,0,0,1,1.62.72,1.58,1.58,0,0,1,.91-.53,4.25,4.25,0,0,1,.72-.12,1.6,1.6,0,0,1,1.11.34,2.2,2.2,0,0,0-.7,1.21,2.09,2.09,0,0,0-.06.47v2.22q0,.67-.05,2.49a2.64,2.64,0,0,0,1,2.45h0a1.63,1.63,0,0,0-.74.71,4.48,4.48,0,0,0-.27,1.68c0,.36,0,.63,0,.83v3.9a2,2,0,0,0,.72,1.55,1.83,1.83,0,0,1-1.07.42h-.23a2,2,0,0,1-1.32-.53,1.77,1.77,0,0,1-1.29.47,2.79,2.79,0,0,1-1.39-.26,2.2,2.2,0,0,0,.71-1.77v-5a1.18,1.18,0,0,0-.25-.9,1.49,1.49,0,0,0-.74-.14,1.53,1.53,0,0,0-1.39.77h-.07a1.29,1.29,0,0,0-1.26-.77c-.57,0-.93.14-1.07.42a6.42,6.42,0,0,0-.1,1.52c0,.71,0,1.37,0,2s0,1.44,0,2.46a1.88,1.88,0,0,0,.71,1.63,1.69,1.69,0,0,1-.94.19h-.05a2,2,0,0,1-1.69-.64v0h0a1.73,1.73,0,0,1-1.44.67h-.26a2.33,2.33,0,0,1-.94-.23v-.05a1.84,1.84,0,0,0,.72-1.33q0-3.17,0-5v-.71a2,2,0,0,0-1-1.84.66.66,0,0,0-.19-.08v0l.37-.23q.79-.79.79-3.4V42.54a2,2,0,0,0-.94-1.8v0a3.21,3.21,0,0,1,1.06-.18,2,2,0,0,1,1.75.61,2.17,2.17,0,0,1,1.72-.62h0a2.3,2.3,0,0,1,1.14.25h0a2.29,2.29,0,0,0-.54.71,3.35,3.35,0,0,0-.35,1.12v2.75c0,.52,0,1.08,0,1.68a.67.67,0,0,0,.55.66,2.08,2.08,0,0,0,.39.05h.31A1.31,1.31,0,0,0,49,47h0a1.07,1.07,0,0,0,1.11.71h.31q.83,0,.82-.9V42.61a2.25,2.25,0,0,0-1.07-1.81A1.85,1.85,0,0,1,51.33,40.45Z"/><path class="cls-7" d="M69,39.9h.06a3.49,3.49,0,0,1,.11.85v.11a3.2,3.2,0,0,1-.45,1.59,2.1,2.1,0,0,1,.43,1.35c0,.43,0,.7,0,.82l0,.1h0a3.88,3.88,0,0,0-2-.66H63.74c-.92,0-1.47.22-1.66.67a2.8,2.8,0,0,0-.08.67v2.44l.1,0h.35q1.5,0,1.85-.58a2.11,2.11,0,0,0,.48-.58,1.34,1.34,0,0,1,.34,1,2.63,2.63,0,0,1-.64,1.65A2.56,2.56,0,0,1,65,51a3.28,3.28,0,0,1-.16,1h0a2.34,2.34,0,0,0-2-.85h-.7s0,0,0,0v2.9a1.21,1.21,0,0,0,.83,1.33l.28,0,.51,0H68a2.75,2.75,0,0,0,1.82-.75,6.18,6.18,0,0,1,.06,1.1v0a1.79,1.79,0,0,1-.5,1.25,1.85,1.85,0,0,1,.41.83,10.29,10.29,0,0,1,.06,1.26v.11a3,3,0,0,0-1.66-.44h-5.4a3.3,3.3,0,0,1-2.26-.94,1.73,1.73,0,0,1-1.64.85h-.17a5.78,5.78,0,0,1-1.3-.16v0a2.63,2.63,0,0,0,.65-1.87V51.92a2.56,2.56,0,0,0-1.17-2.49l0-.06a2.19,2.19,0,0,0,1.2-1.83V44a5.59,5.59,0,0,0-.82-2.91,2.81,2.81,0,0,1,.8-.09h.2a2.94,2.94,0,0,1,2.15.66,3.28,3.28,0,0,1,2.31-.92l.8,0,3.21,0h.41A3.23,3.23,0,0,0,69,39.9Z"/><path class="cls-7" d="M71.71,40.36h.22a2.82,2.82,0,0,1,2,.77,4.93,4.93,0,0,1,2.8-.61H77a10.76,10.76,0,0,1,4.36.61,4,4,0,0,1,2.1,2q.1.25.44,1.64a1.76,1.76,0,0,0,.89.95v0A2.12,2.12,0,0,0,83.89,47,4.49,4.49,0,0,1,83,49.16a4.68,4.68,0,0,1-1.59,1.21A2.87,2.87,0,0,1,80,50.7h-.24a1.77,1.77,0,0,1,.92.39,6.83,6.83,0,0,1,.94,1.82,2.12,2.12,0,0,0,1.06,1h.05a1.63,1.63,0,0,0-.19.67v.07a8.66,8.66,0,0,0,1.25,2.9,5.39,5.39,0,0,0,1,1.52,7.84,7.84,0,0,0,2.28,1.41,2.06,2.06,0,0,0,.49.23v0a3.91,3.91,0,0,1-2.34.59h-.15a6,6,0,0,1-4.36-1.62,6.82,6.82,0,0,1-1.06-2s-.24-.5-.68-1.49a1,1,0,0,0-.86-.46h0v0a1,1,0,0,0,.2-.59V55a8,8,0,0,0-.9-2.35,2,2,0,0,0-.69-.93,2,2,0,0,0-1.24-.42v5.43a2.37,2.37,0,0,0,.7,2v.06a1.72,1.72,0,0,1-.89.2,2.66,2.66,0,0,1-1.8-.57,2.66,2.66,0,0,1-1.69.4,4.46,4.46,0,0,1-.86-.08v0a2.59,2.59,0,0,0,.66-1.84V53.05c0-.49,0-1.14,0-1.95a2.06,2.06,0,0,0-.85-1.71v0a2,2,0,0,0,.86-1.55c0-.5,0-1,0-1.44V43a4,4,0,0,0-.83-2.53h0A3.32,3.32,0,0,1,71.71,40.36Z"/><path class="cls-7" d="M87.5,40.56l.11,0h.15a2.58,2.58,0,0,1,1.77.62,2.53,2.53,0,0,1,1.76-.64h.27a5.08,5.08,0,0,1,2,.43v0a3,3,0,0,0-1.81,1.16,1.75,1.75,0,0,0-.26.85V48a1.77,1.77,0,0,0,.92,1.65v0a1.53,1.53,0,0,0-.92,1.53v5.27a2.44,2.44,0,0,0,1.36,2,2.09,2.09,0,0,0,.71.25v0a2.66,2.66,0,0,1-1.35.28h-.31a2.82,2.82,0,0,1-2.26-.79c0,.17-.2.38-.6.64a2.58,2.58,0,0,1-1.25.3h-.3a5.15,5.15,0,0,1-1.87-.42v0A3,3,0,0,0,87,57.92a2.06,2.06,0,0,0,.57-1.55V51.54c0-.77-.1-1.24-.29-1.41a2.57,2.57,0,0,0-.64-.49,1.86,1.86,0,0,0,.79-.95,6.62,6.62,0,0,0,.14-1.63V43.77q0-1.43-.31-1.69a3.29,3.29,0,0,0-1.61-1h-.09v0a3.6,3.6,0,0,1,1.82-.43S87.5,40.58,87.5,40.56Z"/><path class="cls-7" d="M105.86,39.92a2.44,2.44,0,0,1,.13.77v.21a3.16,3.16,0,0,1-.45,1.57,2,2,0,0,1,.42,1.38q0,.11,0,.85l0,0a3.94,3.94,0,0,0-2-.66l-1.41,0-1.87,0c-.86,0-1.41.19-1.64.57a2.17,2.17,0,0,0-.12.81V47.8l.48,0q1.49,0,1.85-.61a2.33,2.33,0,0,0,.44-.54,1.37,1.37,0,0,1,.33,1,2.58,2.58,0,0,1-.62,1.59,1.11,1.11,0,0,1,.6,1v.15a5.53,5.53,0,0,1-.24,1.41,2.34,2.34,0,0,0-1.91-.78h-.85v2.77q0,.64,0,1.78a4.22,4.22,0,0,0,.77,2.44c.31.34.49.51.54.51h0a1.42,1.42,0,0,1-.82.2h-.32a2.15,2.15,0,0,1-1.85-.9.8.8,0,0,1,0-.12,2.09,2.09,0,0,1-2,1h-.17a4.22,4.22,0,0,1-1-.11v0A3.59,3.59,0,0,0,95,56.79a.89.89,0,0,0,0-.21V51.82a2.59,2.59,0,0,0-1.19-2.49v0A2.19,2.19,0,0,0,95,47.48V44a7.17,7.17,0,0,0-1-3.14s-.05-.05-.11-.17h0s.12-.06.35-.06h0a4.39,4.39,0,0,1,2.4.8l.24.24a3,3,0,0,1,1.65-.85,9.3,9.3,0,0,1,1-.06H104A3.35,3.35,0,0,0,105.86,39.92Z"/><path class="cls-8" d="M120.78,39.56c.08.25-2.31.86-2.31,1.12v.21a3.17,3.17,0,0,1-.45,1.57,2,2,0,0,1,.42,1.38q0,.11,0,.85l0,0a3.94,3.94,0,0,0-2-.66c-.36,0-4.69.19-4.92.57a2.14,2.14,0,0,0-.13.81V47.8l.48,0c1,0,1.6-.2,1.85-.61.07,0-.23.33,0,0,.22.22.76,0,.76.46a2.58,2.58,0,0,1-.63,1.59,1.11,1.11,0,0,1,.6,1v.15a5.27,5.27,0,0,1-.24,1.41,2.34,2.34,0,0,0-1.91-.78h-.85v2.77c0,.43,0,1,0,1.78a4.21,4.21,0,0,0,.77,2.44c.31.34.49.51.54.51h0a1.43,1.43,0,0,1-.82.2h-.33a2.14,2.14,0,0,1-1.85-.9l0-.12a2.09,2.09,0,0,1-2,1h-.18a4.23,4.23,0,0,1-1-.11v0a3.59,3.59,0,0,0,.89-1.83,1.15,1.15,0,0,0,0-.21V51.82a2.59,2.59,0,0,0-1.18-2.49v0a2.18,2.18,0,0,0,1.18-1.82V44a7.14,7.14,0,0,0-1-3.14s-.05-.05-.11-.17h0s.12-.06.35-.06h0a4.39,4.39,0,0,1,2.4.8l.24.24a3,3,0,0,1,1.65-.85,9.26,9.26,0,0,1,1-.06h4.43A13.93,13.93,0,0,0,120.78,39.56Z"/><polygon class="cls-9" points="74.64 4.93 76.11 8.21 79.61 8.84 77 11.28 77.49 14.85 74.39 13.07 71.2 14.66 71.91 11.12 69.44 8.53 72.97 8.11 74.64 4.93"/><path class="cls-9" d="M75.28,5.48a.7.7,0,0,1-.85.52.71.71,0,0,1-.51-.86.7.7,0,0,1,.85-.52A.71.71,0,0,1,75.28,5.48Z"/><ellipse class="cls-9" cx="79.2" cy="9.02" rx="0.71" ry="0.7" transform="translate(51.25 83.67) rotate(-75.97)"/><ellipse class="cls-9" cx="69.99" cy="8.72" rx="0.71" ry="0.7" transform="translate(44.51 74.49) rotate(-75.92)"/><path class="cls-9" d="M77.9,14.57a.7.7,0,0,1-.85.52.71.71,0,0,1-.51-.86.7.7,0,0,1,.85-.52A.71.71,0,0,1,77.9,14.57Z"/><path class="cls-9" d="M72.27,14.34a.7.7,0,0,1-.85.52.71.71,0,0,1-.51-.86.7.7,0,0,1,.85-.52A.71.71,0,0,1,72.27,14.34Z"/><path class="cls-9" d="M62.51,61.71h1.37c.58,0,.88.32.88.7a.61.61,0,0,1-.42.58.69.69,0,0,1,.57.68c0,.44-.37.82-1.06.82H62.51Zm.42,1.18h.76c.41,0,.65-.11.65-.45S64.17,62,63.7,62h-.77Zm0,1.28h.9c.44,0,.66-.2.66-.51s-.39-.47-.73-.47h-.83Z"/><path class="cls-9" d="M68.18,61.71v1.8c0,.57-.4,1-1.26,1s-1.2-.48-1.2-1V61.71h.42v1.75a.71.71,0,0,0,.79.77.72.72,0,0,0,.82-.76V61.71Z"/><path class="cls-9" d="M69.66,64.49h-.42V61.71h1.44c.51,0,1,.16,1,.75a.68.68,0,0,1-.43.67.48.48,0,0,1,.37.52l0,.5c0,.15,0,.21.16.28v.06h-.52a3,3,0,0,1-.07-.7c0-.23-.05-.5-.56-.5h-1Zm0-1.51h1c.31,0,.64-.07.64-.48s-.35-.47-.56-.47H69.66Z"/><path class="cls-9" d="M74,63h1.37v1.49h-.27l-.1-.36a1.52,1.52,0,0,1-2,.12,1.5,1.5,0,0,1,1-2.61,1.24,1.24,0,0,1,1.32.92h-.41A.87.87,0,0,0,74,62a1,1,0,0,0-1,1.12c0,.56.21,1.14,1,1.14a1.08,1.08,0,0,0,.64-.18.81.81,0,0,0,.34-.74H74Z"/><path class="cls-9" d="M78.73,64.49H76.42V61.71H78.7V62H76.84v.85h1.71v.33H76.84v.93h1.88Z"/><path class="cls-9" d="M80.09,64.49h-.42V61.71h1.44c.51,0,1,.16,1,.75a.68.68,0,0,1-.43.67.48.48,0,0,1,.38.52l0,.5c0,.15,0,.21.16.28v.06h-.52a3.09,3.09,0,0,1-.07-.7c0-.23-.05-.5-.56-.5h-1Zm0-1.51h1c.31,0,.63-.07.63-.48s-.35-.47-.56-.47H80.09Z"/><path class="cls-9" d="M85,62.53c0-.43-.42-.56-.77-.56s-.71.07-.71.49c0,.24.19.31.37.35l.89.18c.4.09.71.3.71.74,0,.66-.69.84-1.22.84a1.34,1.34,0,0,1-.94-.27.81.81,0,0,1-.32-.71h.4c0,.5.46.65.86.65s.82-.07.82-.47-.15-.38-.66-.49l-.64-.13c-.2,0-.67-.17-.67-.65s.32-.86,1.07-.86c1.09,0,1.2.58,1.22.89Z"/><path class="cls-9" d="M66,18c0,.13.09.38.52.35.23,0,.49-.09.47-.34s-.19-.23-.44-.27l-.26,0c-.38-.06-.76-.13-.79-.65,0-.27.1-.74.86-.79a.8.8,0,0,1,1,.71l-.47,0c0-.11-.08-.36-.5-.33-.19,0-.41.1-.39.31s.16.22.26.23l.58.11c.32.06.63.17.65.6,0,.72-.67.83-.88.84-.86.05-1-.44-1.05-.73Z"/><path class="cls-9" d="M68.18,16.59l-.46,0,0-.43.46,0Zm0,.21.09,1.77-.46,0-.09-1.77Z"/><path class="cls-9" d="M70.29,18.48l-.46,0,0-1.07c0-.13,0-.35-.31-.34a.36.36,0,0,0-.34.42l0,1-.46,0-.07-1.77.44,0V17h0a.6.6,0,0,1,1.14.24Z"/><path class="cls-9" d="M72.19,17.78a.75.75,0,0,1-.78.71.78.78,0,0,1-.83-.86c0-.57.22-1,.81-1a.71.71,0,0,1,.79.66h-.47a.29.29,0,0,0-.31-.28c-.29,0-.36.3-.35.52s0,.58.37.57a.32.32,0,0,0,.3-.32Z"/><path class="cls-9" d="M74,17.88a.75.75,0,0,1-.76.58c-.49,0-.87-.23-.88-1a.82.82,0,0,1,.82-.91c.34,0,.82.15.83,1v.08l-1.19,0c0,.13,0,.43.42.42a.3.3,0,0,0,.29-.2Zm-.46-.54c0-.29-.21-.37-.36-.37s-.33.15-.35.38Z"/><path class="cls-9" d="M75.28,16.43h.07c.44,0,.56-.22.58-.4h.38l0,2.36H75.8l0-1.63h-.55Z"/><path class="cls-9" d="M77.44,17a.65.65,0,0,1,.42-.12.71.71,0,0,1,.69.78.79.79,0,0,1-.86.83.72.72,0,0,1-.74-.71h.46c0,.19.11.33.32.33s.35-.18.36-.43-.09-.43-.33-.43a.32.32,0,0,0-.31.16l-.41,0,.18-1.29,1.28,0v.39l-.95,0Z"/><path class="cls-9" d="M80.45,16.53a3.22,3.22,0,0,0-.91,1.93l-.47,0A3.3,3.3,0,0,1,80,16.56l-1.16,0,0-.41,1.64.05Z"/><path class="cls-9" d="M80.65,17c0-.77.59-.81.8-.8a.73.73,0,0,1,.77.78.91.91,0,0,1-.52.75c-.32.2-.48.3-.54.41l1,0,0,.41-1.59-.07a1.06,1.06,0,0,1,.58-.91c.43-.29.6-.4.62-.67a.32.32,0,0,0-.31-.35c-.32,0-.34.25-.35.43Z"/><path class="cls-9" d="M75.33,42.74a10.63,10.63,0,0,1,1.58-.12,3.27,3.27,0,0,1,2.34.73,2.72,2.72,0,0,1,.81,2.1,3.13,3.13,0,0,1-.83,2.28,3.52,3.52,0,0,1-2.55.84,12,12,0,0,1-1.35-.07Z"/><path class="cls-10" d="M134.39,40.45l.79.07.76.08,0,.22h.08c.3-.4.65-.08,1,0a7.69,7.69,0,0,1,1.12.24c.36.09.72.19,1.07.31a15.2,15.2,0,0,1,6.88,4.54l.12.16,0,.09c-.61.23-.61.23-1-.2s-.55-.57-.75-.77c0-.25.15-.49.07-.6a.63.63,0,0,0-.92-.15l-.25-.18-.25-.18c.23-.28,0-.45-.26-.64l-.21.28c-.51-.29-1-.57-1.44-.81a15.6,15.6,0,0,0-8.2-1.76c-6.89.38-12.13,4.75-13.39,10.23a9.4,9.4,0,0,0-.21,1.13c-.06.56,0,.57-.74.65.08-.45-.09-.92.28-1.32a.11.11,0,0,0,0-.09c-.19-.61.22-1.13.3-1.71l.27,0s0-.09,0-.1c-.17-.18-.1-.36,0-.56a14.18,14.18,0,0,1,8.51-7.85,15.82,15.82,0,0,1,3.67-.89.43.43,0,0,1,.28.08c.29.21.4.18.5-.14l.9-.1Z"/><path class="cls-10" d="M148.38,55.1h.67c0,.09-.06.18-.12.23a1.93,1.93,0,0,1-.33.17l.33.31a10.24,10.24,0,0,1-1.22,3.68c-.37.68-.8,1.33-1.22,2l-.32-.24c-.37.25-.39.37-.1.62a12.88,12.88,0,0,1-3.36,2.94l-.41-.23c.2.52-.23.62-.54.78a16.24,16.24,0,0,1-8.38,1.9c-1.08,0-2.15-.25-3.23-.38a3.27,3.27,0,0,1-.37-.11c.16-.11.25-.23.36-.24a3.8,3.8,0,0,1,1-.06A15.74,15.74,0,0,0,142.78,64a12.41,12.41,0,0,0,5.51-8.3C148.33,55.51,148.35,55.28,148.38,55.1Z"/><path class="cls-10" d="M122.5,60.64l.24-.07c.78.73,1.48,1.49,2.29,2.14a13.79,13.79,0,0,0,6.89,2.86,5.63,5.63,0,0,1,.67.18l0-.08a14.44,14.44,0,0,0,11-3.63,11.49,11.49,0,0,0,2.82-3.93c.06-.13.07-.3.31-.28,0,0,.09-.19.1-.29s-.06-.27,0-.4c.16-.85.33-1.7.49-2.55,0-.24,0-.24.39-.32-.28,4.09-2.29,7.31-6.08,9.71l-.13-.16s0,0-.08,0,0,0-.05,0c0,.24-.17.36-.39.48A15.4,15.4,0,0,1,132.76,66c-.5,0-1-.19-1.48-.25a10.82,10.82,0,0,1-2.62-.64,13.55,13.55,0,0,1-6-4.25C122.59,60.79,122.55,60.72,122.5,60.64Z"/><path class="cls-10" d="M130.27,66.32a4.44,4.44,0,0,1-2.31-.06,15.2,15.2,0,0,1-6.8-5L121,61c.56-.27.6-.27.94.17a14.36,14.36,0,0,0,3.84,3.33c.3.19.63.32.94.49a11.25,11.25,0,0,0,1.1.5c.37.15.76.28,1.14.41S129.78,66.17,130.27,66.32Z"/><path class="cls-10" d="M131.72,42.22c-.56.12-1.11.22-1.65.36a13.3,13.3,0,0,0-7.47,5,3.32,3.32,0,0,1-.43.41,3.73,3.73,0,0,1-.21.59,11,11,0,0,0-1.2,3.1c0,.07,0,.17-.07.21a.51.51,0,0,0-.07.78l-.42.11a10.51,10.51,0,0,1,.77-3A11.29,11.29,0,0,1,122.63,47a13.91,13.91,0,0,1,8.5-4.95C131.45,42,131.5,42,131.72,42.22Z"/><path class="cls-10" d="M137.14,60.42a4.78,4.78,0,0,1,.07.72c0,.26.13.38.38.46s.49.2.8.33c-.36.13-.67.21-1,.34a.54.54,0,0,0-.26.32,8.13,8.13,0,0,0-.14.88c-.24-.26-.44-.46-.62-.67a.43.43,0,0,0-.48-.16,6.12,6.12,0,0,1-.85.08c0-.06,0-.09,0-.1a1,1,0,0,0,0-1.61.6.6,0,0,1-.07-.15c.35.08.66.16,1,.2a.64.64,0,0,0,.4-.09C136.68,60.8,136.9,60.6,137.14,60.42Z"/><path class="cls-10" d="M131,48.28a4.73,4.73,0,0,1-.06-.76c0-.28-.1-.43-.39-.52s-.48-.19-.79-.32a7.31,7.31,0,0,1,.85-.3.46.46,0,0,0,.4-.46c0-.24.06-.48.1-.79.23.25.44.44.61.65a.5.5,0,0,0,.56.17l.91-.15c-.21.29-.39.53-.54.78a.86.86,0,0,0,.54,1.06c-.56.07-.86,0-1.06-.32a.27.27,0,0,0-.17-.1s-.13.06-.13.09c.05.34-.32.43-.48.65A3,3,0,0,1,131,48.28Zm.68-2.33c-.14-.09-.23-.19-.29-.18s-.16.11-.24.17c.07.06.14.15.22.16S131.57,46,131.72,45.95Z"/><path class="cls-10" d="M134,46.15c.25-.1.58-.14.73-.31s.12-.46.18-.73c.22.2.38.45.6.53a2.44,2.44,0,0,0,.85-.06c-.15.24-.39.45-.39.66s.21.44.39.77a1.08,1.08,0,0,0-1.55.32C134.91,46.67,134.63,46.32,134,46.15Z"/><path class="cls-10" d="M126.89,48c.69-.12,1-.45.91-1,.24.2.42.44.67.51a2.45,2.45,0,0,0,.84-.08c-.16.24-.4.46-.41.68s.22.43.41.75c-.64-.28-1.16-.29-1.52.33A1,1,0,0,0,126.89,48Z"/><path class="cls-10" d="M140.37,59.55c0,.61.25,1,1,1.08-.69.13-1.07.43-1,1.07-.19-.18-.34-.46-.57-.53a2.87,2.87,0,0,0-1,.08c.58-.46.59-.89.17-1.37a1.25,1.25,0,0,1,.43.1c.26.19.41.07.58-.09Z"/><path class="cls-10" d="M144.79,46.49a.38.38,0,0,1-.57-.09c-.29-.32-.61-.61-.93-.9a12.45,12.45,0,0,0-3.22-2.07c-.25-.12-.46-.23-.38-.52A13.3,13.3,0,0,1,144.79,46.49Z"/><path class="cls-10" d="M131.83,63a.82.82,0,0,0,0-1.36c.62.22,1.12.19,1.44-.38.25.31-.09.76.39.9l-.46,1.3A1,1,0,0,0,131.83,63Z"/><path class="cls-10" d="M136.29,42.23c-.5,0-1-.11-1.51-.11-.83,0-1.67,0-2.5.06-.23,0-.38,0-.42-.28a15.71,15.71,0,0,1,4.31,0l.11.31Z"/><path class="cls-10" d="M136.28,42.24l.43-.17V42l2.51.69c-.39.31-.74.12-1.1,0-.6-.16-1.22-.31-1.82-.46Z"/><path class="cls-10" d="M149.09,53.9v.54l-.61-.06C148.39,54,148.39,54,149.09,53.9Z"/><text></text><text></text><path class="cls-11" d="M120.86,54.54l0,0h0s0,0-.07,0v0Zm-.07.11h.08q0,.09,0,.1h0v0s0,0,0,0l0,0ZM124.24,57l-.13,0L124,57h-.1l-.09,0,0,0-.15.06a.05.05,0,0,0-.08,0v0h0l0,0h-.12l-.05,0,0,.07s0,.09,0,.15h0v.09l.12.33a.16.16,0,0,1,0,.07h0l0,.12.16.43s0,0,0,0l0,0v0h0l0,.12.08.21V59l.73-.2-.17-.56.7-.21.43,1.4-.21.06,0,0-.37.11v0l-2.45.75-.19-.62.47-.14-.26-.69q-.06-.16-.13-.4l0,0-.23-.86,0,0q-.29-.93-.7-2.32l-.42.13-.19-.62.43-.13v0l0,0h0l.18-.07.27-.08H122s0,0,0,0l.26-.06,1.07-.31h0l.7-.21.43,1.4-.7.21-.18-.6h0l-.07,0h-.08l-.13.06,0,0-.14.08,0,0s0,0,0,0L123,55l0,0-.08,0h-.07l-.16.08.14.38,0,.11a.15.15,0,0,1,.05.07h0l0,0v0s0,0,0,0l0,0,0,.11,0,0h0v.11s0,0,0,0v.09l.07.2.88-.25Zm-2.91-2a0,0,0,0,0,.05,0h0a0,0,0,0,0-.05,0Zm.44.31v0h0v0Zm0-.49v0h0v0Zm.07.91v0h0v0Zm0,.18v0s0,0,0,0Zm.09-.37v0h0v0Zm0-.83v0h0v0Zm.31,2q0-.08-.16-.1v0s0,0,0,.08v0Zm-.13.08,0-.07h0l0,.07Zm0-1.61v0s0,0,0,0v0S122.11,55.07,122.11,55.08Zm.14,1.72v0h-.09a.48.48,0,0,1,.06.13h0S122.26,56.84,122.25,56.81Zm-.08-2v0h0v0Zm.16,2.52v0h0v0Zm0,.18,0-.11h0l0,.11Zm0-.86,0-.07h0l0,.07Zm.16.17,0-.09h0l0,.07-.14,0a.39.39,0,0,1,0,.14l.05,0h0l0-.07h0v.11h0S122.55,56.86,122.55,56.78Zm-.21-1.57v0h0v0Zm.21,2s0-.06-.06-.06h0s0,.07.06.06Zm0,.41v-.08s0-.06-.06-.05a.41.41,0,0,1,0,.1Zm.05.17s0-.06-.06-.06,0,0,0,.08Zm0,.41v0h0v0Zm0-1,0-.07s0,0,0,.08Zm0,.73v0l-.06,0v0Zm0-.68,0-.07h0l0,.07Zm0-.52v0h0v0Zm0,1.69,0-.07h0l0,.07Zm0,.82h0l0,0S122.75,59.18,122.75,59.2Zm0-4.63h0a0,0,0,0,0,0,0v0A0,0,0,0,0,122.8,54.57Zm.16,3.65,0-.07-.14,0,.05.1Zm-.06-1.58v0s0-.06-.06-.06h0v0s0,.06.06.05Zm0,.43s0,0,0,0a.45.45,0,0,1-.06-.13.13.13,0,0,1-.07.06S122.88,57,123,57.07Zm0,1.52,0-.1-.06,0a.41.41,0,0,1,0,.1s0,0,0,0S122.93,58.59,122.95,58.59Zm.14-1.67q-.2-.2-.22-.19v.07Q123,57,123.09,56.92Zm-.2,2.54v0h0A0,0,0,0,0,122.89,59.46Zm.13-2.82,0-.14h0q0,.15,0,.16v0h0A.11.11,0,0,1,123,56.64Zm0,.94,0-.07h0l0,.07Zm0-.19v0h0v0Zm0-.08,0-.07h0l0,.07Zm0,.84v0s0-.06-.06-.05v0S123,58.16,123,58.15Zm0-.25v0h0v0Zm0,.94v0h0v0Zm0-4.21v0h0v0Zm0,3.54h0l0,.07S123.12,58.21,123.11,58.17Zm0-.3v0h0v0Zm0,.66v0h0v0Zm0-1v0h0v0Zm0,1.24s0-.06-.06-.05h0l0,.14h0S123.22,58.81,123.2,58.77Zm0-.33h0l0,.07S123.2,58.48,123.19,58.44Zm0-.56v0h0v0Zm.05-.27v0h0v0Zm.07.09,0-.07-.06,0,0,.07Zm0,.76s0-.06-.06-.05h0s0,0,0,.08Zm0-.55,0-.07h0l0,.07Zm0,1.89v0h0v0Zm0-.5v0h0v0Zm.06-.69v0h0v0Zm0-.56v0h0l0,.1S123.38,58.09,123.37,58.05Zm-.05,1.41v0h0v0Zm.14-1,0,.14h0l0-.14Zm.11-4,0,0h0v0A0,0,0,0,0,123.57,54.48Zm0,5.16v0s0,0,0,0h0S123.6,59.62,123.61,59.64Zm0-5,0,.08s0,0,0,0v0Zm0,2.07v0h0v0Zm0,2.66v0h0v0Zm0-2.35a0,0,0,0,0,.05,0v0Zm.15,2.78v0h0v0Zm.05-1.32,0,.07h0l0-.07Zm.2-1.91a.12.12,0,0,1,0,.05h0s0,0,0,0,0,0,0,0Zm0,.18v0h.06v0l0,0h0S124.16,56.68,124.15,56.72Zm0,2.46v0a0,0,0,0,0,0,0h0s0,0,0,0l0,0Zm0-.09,0,0h0s0,0,0,0h0Zm.32-.1q0,.15-.06.16s0,0,0,0h0v0a0,0,0,0,0,.05,0h0l.07,0h.09a.12.12,0,0,0,0-.11l.11,0v0l-.08,0s0,0,0,0Zm0,.22v0h0v0Z"/><path class="cls-11" d="M126.62,53.61l-.17-.54,1.8-.55.17.54-.47.14v0h0l0,.09a1.07,1.07,0,0,0,0,.15,7.63,7.63,0,0,0-.1.76.06.06,0,0,0,0,0,.3.3,0,0,1,0,.12,1.29,1.29,0,0,1-.12.52v0h0v0s0,0,0,0l0,0,0,.1,0,.07s0,.07-.06.08v0s0,0,0,0,0,.1,0,.22l.4.46,0,.07a4.81,4.81,0,0,1,.35.37v0q.18.18.4.42v0l.45.51s0,0,0,0l.16.16s0,0,0,0,0,0,.08.06l.23-.07.17.54-1.8.55-.17-.54.48-.15-.1-.1v0l-.22-.25-.06-.11a6.65,6.65,0,0,1-.63-.68,6.66,6.66,0,0,1-.14.91.43.43,0,0,1,0,.12l0,.33v0a1,1,0,0,0,0,.14l.48-.15.17.54-1.8.55-.17-.54.29-.09q0-.09,0-.09s0,0,0,0l.05-.22s0,0,0,0,0-.32.09-.67v0q0-.33.09-.57v0a5,5,0,0,1,.09-.51v-.08q0-.32.08-.62l-.14-.16s0,0,0,0v0a.09.09,0,0,1-.09,0l0-.08-.09-.06v0h0l0,0h0a1.28,1.28,0,0,1-.39-.36.3.3,0,0,1-.05-.11,0,0,0,0,0-.05,0,7.66,7.66,0,0,0-.51-.58.55.55,0,0,0-.07-.13l-.07-.06s0,0,0,0h0l-.54.16-.17-.54,1.8-.55.17.54-.26.08,0,0v0a5,5,0,0,1,.6.67,5,5,0,0,1,.13-.89v-.08Zm-.9.43s.08,0,.16,0V54Zm.28-.32s0,0,0,0l0,0s0,0,0,0h0l0,0v0l0,.06h-.08l.11,0q0,.1-.14.15v0q.09,0,.1,0l0,.06v0h.06q.11,0,.1-.07h.08l-.1-.06a.12.12,0,0,0,0-.08q-.06-.09-.12-.07v0h0l0-.08s0,0,0,0l0,0Zm.1,1v0a0,0,0,0,0,0,0v0S126.12,54.67,126.1,54.68Zm0-.2s0,0,.1,0h0a.13.13,0,0,1,0-.09h0Zm0,.16v0l.06,0v0Zm0-.35v0s0,0,.07,0,0,0,0,0,0,0,0,0Zm.06.55s0,0,0,0v0h0l.05,0S126.21,54.84,126.19,54.85Zm0-.25v0a0,0,0,0,0,0,0h0l.09,0,0,0s0,0,0,0h-.12Zm.1-.49s0,.07,0,.08l0,0h0s.06,0,.15,0l0,0v0a0,0,0,0,1,0,0v0l.06,0q0-.1-.17-.09Zm0,.83v0h0S126.28,54.92,126.26,54.93Zm0-.54v0l.12,0s0,0-.07,0Zm0-.2h0v0h0Zm0,.74v0h0v0Zm0,.18v0s0,0,.05,0h0s0,0,0-.07v0Zm.1-.16,0,0h0v-.1h0S126.45,54.91,126.43,55Zm0,2.74v0h0v0Zm0-3v0h0v0Zm0-.32v0h0v0Zm0,.86v0h0v0Zm0-.76v0h0v0Zm.11,0s0,.06-.1.08v0a.19.19,0,0,1,.12,0s0,0,0-.05h0l.07,0,0,0s0,0,0,0h-.08v0s0,0-.06-.05Zm-.06-.07h.1s0,0-.07,0S126.53,54.34,126.54,54.36Zm0-.2v0h0v0Zm0,.52,0,.08.08,0v0s0,0,0,0Zm0,.33v0h0v0Zm0,0v0s.06,0,.07,0,0,0,.06-.13l-.06,0A.17.17,0,0,1,126.62,55Zm0,.48v0h.06v0Zm0-.1.05,0a.12.12,0,0,0,0,.05h0l.07,0-.05-.11h0A.16.16,0,0,1,126.65,55.42Zm0-.2v0h0v0S126.67,55.2,126.67,55.22Zm0,2.24a.12.12,0,0,1,0,.07h0l0-.07Zm0,1.25v0h0v0Zm0-4.4s.08.07.12.05l.07-.06h.06q-.11,0-.13-.09h0Q126.68,54.29,126.69,54.3Zm0,4.61v0h0v0Zm.05-2.27a0,0,0,0,0,0,0v0Zm0,.1v0h0l.05,0v0h0Zm0-1.22,0,0s0,0,0,0v0Zm0,.68v0h0v0Zm0-1.56a.13.13,0,0,1,.06.07h0q0-.1,0-.12l0,0,0,.06H127l0-.15s0,0,0,0Zm0,.12q0,.08.06.07s.05,0,0-.08H127l-.05,0Zm0,2.11v0h0v0Zm0,1v0a.43.43,0,0,1,.17-.07v0h-.14S126.81,57.82,126.81,57.84Zm0-2.24h0v0h0v.07h0s0-.05,0-.13Zm0-.65v0a0,0,0,0,0,0,0v0Zm0,1.14.08,0v0h0S126.83,56.08,126.84,56.1Zm0,1.82,0,.1h0a.17.17,0,0,1,.08-.06l0-.08Zm0-.65v0a0,0,0,0,0,0,0,.12.12,0,0,1,0-.05Zm0-1.36h0s0,0,0,0h0S126.86,55.89,126.86,55.91Zm0,.27v0s0,0,.07,0h0s0,0,0,0h0l0,0,0,0Zm0,.75v0h0S126.89,56.92,126.86,56.93Zm0,1.91a.12.12,0,0,1,0,.05l.08,0a.12.12,0,0,1,0-.05Zm0-2.49v0h0S126.92,56.34,126.89,56.35Zm0-2.14v0h0v0Zm.1,3.12v0l0,0,0,0s0,0,0,0l-.05,0v0s0,0,0,0l0,0h0a.11.11,0,0,0,.05-.1H127Zm-.09-.1,0,0s0,0,0,0h-.06Zm0-.52v0h0v0Zm0-2.24v0h0S127,54.46,126.94,54.47Zm0,1.79v0l.08,0v0ZM127,54s0,0,.07,0h0s0,0-.07,0Zm0,3.61H127v-.11h0A.17.17,0,0,0,127,57.64Zm0-1.27v0l.06,0,0-.08h0S127,56.34,127,56.36Zm0-2.15s0,0,.07,0h0v0Zm0,1.59v0l.06,0s0,0,0,0Zm0-.35v0h0l.07,0v0Zm0-.5v0l.06,0v0Zm0,2.72v0h0v0Zm0-3.31v0l.06,0v0Zm0,2.52,0,0,.05,0v0Zm0,1.91v0h0v0Zm0-2.31a.12.12,0,0,1,0,.06l.11-.05v0h-.08v0H127Zm0-.52v0h0v0Zm0-.88,0,0,.07,0v0A.17.17,0,0,1,127,55.08Zm0,1.07v0h0v0Zm0-.16V56h0s0,0,0,0v0Zm0,.79,0,.07h0s0,0,0-.07Zm0-2.58v0h0v0Zm0,1,0,.07h0s0,0,0,0,0,0,0,0Zm0,2.33v0a0,0,0,0,0,0,0h0v0Zm.07-2.89v0h0s0,.06,0,.12h0l.07-.06.06,0v0h0v0h.15v0h0v-.09q-.08,0-.08,0Zm-.06,3a.12.12,0,0,1,0,.05v0h0a.12.12,0,0,1,0-.05v0Zm0-.93v0h.08s0,0-.07,0Zm0-.66,0,.11h0s0,0,0-.07,0,0,0,0l0-.06v0h0S127.11,56,127.1,56.07Zm.09-1.62v0h0s0,0,0,0v0l.09,0h0v.05h0l0,0h.06s0,0,0,0v0l.09,0,.07,0v0l-.06,0,0-.1h0l-.09,0v0l0,0Zm-.08-.33v0l0,.08.05,0,0-.08Zm0,.77v0l.06,0v0Zm0,3.89v0l.06,0S127.16,58.77,127.14,58.78Zm.14-4.44-.14,0v0s.05,0,.06.05h0a.34.34,0,0,1,.15-.12v0h0Zm-.13,1.94v0h0v0Zm0,1.34v.1h.06l0-.08Zm0-4.21v0l.09,0v0h0Zm0,2.93v0l.05,0s-.05,0,0,.05v0h0s0,0,0-.06h0v0h0v0h.08l.05,0h0l0-.06q-.08,0-.09,0v-.07q-.08,0-.09,0v0l.08,0v0l.06,0,0,0v0l-.08,0A.28.28,0,0,1,127.18,56.33Zm0-.51s0,.05,0,.06l0,0a.12.12,0,0,0,0,.05h.08a.12.12,0,0,1,0-.07.15.15,0,0,1,0-.08Zm0-2.5v0h0v0Zm0,2.29v0l.06,0v-.07h0S127.22,55.57,127.21,55.61Zm0,.55v0q.08,0,.09,0h0v0s0,0,0,0Zm0,.07v0h0v0Zm.19-2.58.09,0v0l-.17.07h-.08v0q.09,0,.08-.08l-.08,0s0,0,0,0l0,.1h.08l.09,0h.15l0-.1.06,0v0s-.07,0-.12-.05.07,0,.07-.06h0l0,0h0v0h0l-.06,0s0,0,0,0h0Q127.35,53.5,127.4,53.65Zm-.17,4.54v0s0,0,0,0Zm.07-3s0,0-.07.06,0,0,.09,0v.05s0,0,0,0,0,0,0,0h0q.13-.06.12-.09s0,0-.05,0l-.05,0v-.09l0,0s0,0,0,0Zm-.06,1.72h0s0,0,0-.07l0-.07S127.23,56.79,127.24,56.87Zm0-2V55h0s0,0,0,0l0-.1Zm0,1.66h0v.07h.21l-.05,0v0h0v-.05l-.06,0v0h0s0,0-.07,0,0,0,0,0h-.06S127.24,56.54,127.25,56.56Zm0-1.83v0l.06,0v0Zm0,1.93,0,.1.06,0,0-.08s0,0,0,0Zm0-.61v0h0v0Zm0,1.77v0l.06,0s0,0,0,0Zm0-4v0h0S127.31,53.81,127.28,53.81Zm0,.12v0h0v0q-.08,0-.07.06v0h0v0l0,.07,0-.05h0v0l0,.12h.09l.06,0-.05,0v0h0s0,0,0,0-.05,0-.14,0h0l0,0s0,0,0-.07h.06s0,0,0,0v0l.08,0,0-.08s0,0,0,0l-.15,0v0h0l0-.07h0l0,0,.07,0v0s0,0,0,0l0,0s0,0,0,0S127.29,53.92,127.3,53.93Zm0-.53v0h.08v0s0,0,0,0Zm0,2s0,.05,0,.1h.1v0h0v0l0-.08h-.06Zm0-.07v0h0v0Zm0-2.17v0l.12,0v0s0,0,0,0Zm0,.89h0v0S127.36,54.14,127.35,54.11Zm0-.21v0h0A0,0,0,0,1,127.39,53.91Zm0,1.76v0a0,0,0,0,0,0,0h0S127.41,55.66,127.37,55.67Zm0-2.29h0s0,0,0,0h0S127.37,53.35,127.38,53.37Zm0,3.36v0l0,0,0,0h.1v0h0v-.05h0A.29.29,0,0,1,127.4,56.73Zm0-2a0,0,0,0,0,0,0v0Zm0-1.27h0v0h0Zm0,2.68.05,0v0h0v-.1Zm.06-1.57s0,.07-.06.09v0l.08,0s0,0-.07.11v0a.17.17,0,0,1,.1,0s0,0,0-.08,0,0,0,0v0l.08,0v0h0v0s0,0,0,0l0,0a.12.12,0,0,0,0-.05Zm0-.24s0,.05,0,.07v0h.09s0,0,0,0l0,0v-.05Zm0,2,0,0s0,0,0,0l.09,0s0,0,0-.07,0,0-.06-.05Zm.08-.36h0s0,0,0,.05v0a0,0,0,0,0,0,0h0s0,0,.06-.07v0h0s.05.06.11,0v0h.06a.12.12,0,0,1,0-.05q-.12,0-.13,0Zm-.07.11v0s0,0,0,0Zm0-.45a.12.12,0,0,1,0,.07h0l.08-.06S127.54,55.6,127.48,55.62Zm0-1.8h0a.12.12,0,0,1,0,.05s0,0,0,0v0h0v0l.09,0s0,0,0,0l0,0a.12.12,0,0,0,0-.05h0Zm0,1.63v0h0v0Zm0-2.43v0h0v0Zm0,2.13h0s0,0,0,0h0S127.49,55.12,127.5,55.14Zm0,1.46v0h0v0Zm0-1.72a.13.13,0,0,1,0,.09h0l.07,0h0v0s0,0-.07,0Zm0,.27v0h0v0Zm0-.66a0,0,0,0,0,0,0h0s0,0,0,0Zm0,1.57,0,0v0h.1v0s0,0-.06-.07Zm0-.26v0l.06,0s0,0,0,0Zm.07-2.63-.05.1a0,0,0,0,0,0,0l.14-.08v0l-.09,0h0s0,0,.07-.06v0Zm0,1.23s0,0,0,.07l0,0h0s0,0,0,0l0,0s0,0,0,0Zm0,.48v0l.06,0v0Zm0,1.77v.05h.08v0S127.69,56.64,127.65,56.64Zm0-.36v0h0s0,0,0,0Zm0-2.56a.12.12,0,0,1,0,.05h0l0,0,0,0a.15.15,0,0,0,.11-.12s0,0-.05,0l-.05,0Zm0,1v0l.09,0,0,0Zm0-.81v0s0,0,.07,0l.06,0v0a.17.17,0,0,0-.12-.05Zm.1-.68s0,0-.1.08l0,0,.08,0s0-.06.06-.07S127.83,53.24,127.79,53.23Zm-.06.34v0h0v0Zm0,2.86v0h0v0Zm0-2.17a.18.18,0,0,1,0,.1h0s0,0,0-.12Zm0,1.82v0h.06l0-.06h0Zm0-3,0,.08h0v0s0,0,0,0Zm0,.33a.12.12,0,0,1,0,.07h0s0,0,0,0,0,0,0,0Zm0,3.76v0h.06v0Zm0-1.13v0h0v0Zm0,.07h0v0S127.86,56.05,127.87,56.07Zm0,0v0h0v0Zm.11.16,0,0v0l-.12.07v0h.1l.09,0,0,0,0,0s-.06-.05-.08,0l0-.08h0Zm-.08-.32v0s0,0,0,0Zm0,.82v0h0v0Zm0-.18v0a0,0,0,0,0,0,0h0v0h0a.44.44,0,0,1,.05.11h0s0,0,0,0v0h0s0,0,0-.05v0q-.09,0-.1,0Zm0-.39v0s0,0,0,0Zm0-.2v0s0,0,0,0Zm0,.32v0h0v0Zm0,.5v0h0v0Zm0-.64h0v0S128,56.14,128,56.16Zm0,.68,0,.08.16,0h0v0s-.06,0-.07,0l0,0h.06s0,0,0-.05S128.15,56.83,128,56.85Zm0-.12v0h0s0,0,0,0Zm.11-.39v0l.06,0v0Zm0,.75,0,0a.12.12,0,0,0,0,.05l.06,0,0-.15h-.06S128.13,57,128.11,57.09Zm0,.29v0h0v0Zm0-.19v0s0,0,.07,0h0S128.18,57.17,128.16,57.18Zm0-.69,0,0a.12.12,0,0,0,0,.05l.07,0,0,0s0,0,0,0h-.08Zm0,.16v0l.05,0q-.08,0-.06.27h0a.14.14,0,0,1,.1-.14v0s-.06,0-.07,0a0,0,0,0,1,0,0l.11,0h0s0-.07,0-.08a.1.1,0,0,0-.1,0,.12.12,0,0,0,0,.07h0s0,0,0,0a.16.16,0,0,0,0-.15s0,0,0,0h0v0Q128.24,56.63,128.25,56.65Zm0,1.22s0,0,.07,0v-.1h0S128.3,57.84,128.29,57.87Zm0-.2v0h0l.05,0v0Zm0-.43s0,0,.07,0a.12.12,0,0,1,0-.05Zm0,0v0h0v0Zm.09,0s0,0,0,.08v0l.06,0s0-.05,0-.06S128.44,57.24,128.41,57.25Zm0,.6v0h0v0Zm0-.09v0h0s0,0,0,0h0a.12.12,0,0,1,0-.05Zm0-.13v0a0,0,0,0,0,0,0v0Zm0-.28s0,.07,0,.08v0l.11,0s0,0,0,.05v0s0,0,.05,0,0,0,0,0h0a.21.21,0,0,0,.09-.17l-.17,0Zm0,.64v0s0,0,0,0l.05,0v0A.17.17,0,0,1,128.45,58Zm0-1.07v0h.09l0,.08h.06v0l0,0s0,0,0,0l0-.07h0Zm.38.56v0h-.06l-.07.06s0,0-.11,0,0,0,0,.05l0,0-.12.16s0,0,0,.08a.19.19,0,0,1,.11,0h0a.17.17,0,0,1-.06-.07h0s0,0,.05,0h0l0-.05,0,0,0,0h0s0-.07,0-.08h.08l.08,0a.14.14,0,0,0,.13.1h0l-.08,0,.05,0v0q-.08,0-.09,0l0,0h.08a.12.12,0,0,1,0-.05h0l-.06,0,0,0-.07,0,0,0h0l0,0h0v0h0v0l-.12,0v0a.11.11,0,0,0,.07-.06l.09,0,0,0Zm-.36-.25v0l.06,0s0,0,0,0Zm0,.91v0h0v0Zm.06-1.09a.16.16,0,0,1,0,.13h.1l0-.08s0,0,0,0l-.07,0Zm0,.18a0,0,0,0,0,0,0h0v0Zm.07.7v0h0v0Zm0-.27h0v0h0Zm0-.45a0,0,0,0,0,0,0s0,0,0,0Zm0-.18v0l.06,0v0Zm0,.12v0h0v0Zm0,1.16a.12.12,0,0,1,0,.07h0l0-.07Zm.05-.23,0,.06v0l0,0,.07,0s0,0,0-.05v0A.23.23,0,0,1,128.7,58.07Zm0-.41h0v0s0,0,0,0Zm.1.68v0l.06,0v0Zm.07-.31v0h0v0Zm0,.15v0h0s0,0,0,0Zm0-.38v0a0,0,0,0,0,0,0v0S129,57.8,128.93,57.8Zm.12.11s0,.05,0,.06a.12.12,0,0,1,0,.06h0s0,0,0-.05v0s-.05,0-.06-.05Z"/><path class="cls-11" d="M132.55,53.4q0,.19,0,.2l0,0s0,0,0,0l0,.17.08,0v0h-.05a.19.19,0,0,1,.06.07l0,0h0v0a0,0,0,0,0,0,0h0a0,0,0,0,1,0,0h-.09s0,.07-.06.09l0,.07h.05v.06h-.13s0,.06-.07.08l-.33.1,0,0-.35.09,0,0h0l-.11.05-.17,0h0v.11l0,0a2.18,2.18,0,0,0,.07.24l0,.1v0h0s0,0,0,0h0v.09a3.29,3.29,0,0,1,.22.86l.05.1a2.57,2.57,0,0,0,.07.26l0,0a1,1,0,0,0,0,.26h0a.41.41,0,0,0,0,.11l.4-.12.17.57-2,.62-.17-.57.35-.11-.06-.17s0,0,0,0l0,0q0-.12,0-.13s0,0,0,0l0-.17s0,0,0,0-.06-.25-.15-.53l0,0a3.59,3.59,0,0,1-.1-.45l0,0a2,2,0,0,1-.08-.4l0-.06a5.87,5.87,0,0,0-.19-.65.17.17,0,0,1,0-.07h0a2.91,2.91,0,0,0-.12-.46h0l0,0a4.74,4.74,0,0,1-.28-1l0,0,0-.1h0v-.06l-.42.13-.18-.58,2-.62v0l.07,0q.6-.09.62,0t.18,0q.51.1.79.95s0,0,0,0l0,0a.09.09,0,0,1,0,.06l0,.08a.59.59,0,0,1,0,.2s0,.05.1.18v.06Zm-3.41,0h0v0h0Zm0-.1h0v0h0Zm.07.07s0,0,.05,0h0Zm.06.16h0v0S129.3,53.51,129.3,53.49Zm0-1.15v0h0v0Zm0,.76,0,0,0,0,0,0Zm0-.28h0a.16.16,0,0,0,.08.1l-.08,0h0A.2.2,0,0,0,129.31,52.83Zm0,.82h0v0h0Zm0-.59h0v0h0Zm0-.35,0,0,0,.05v0A0,0,0,0,1,129.35,52.71Zm0,.25v0h0A0,0,0,0,1,129.36,53Zm0,.34h0v0h0Zm0,.12h0v0h0Zm0-.69h0v0S129.42,52.74,129.42,52.72Zm.09.09h0v0h-.08v0S129.48,52.81,129.51,52.81Zm0,0h0s0,0,0,0v0h0l0,0v0h0s0,0,0,0A.15.15,0,0,0,129.48,52.83Zm0,.19h0s0,0,.05,0l-.06,0Zm0,.2,0,0,0,0h0v0l-.08,0a0,0,0,0,1-.05,0Zm0-.26.06,0v0l-.06,0Zm0,.34h0s0,0,0,0h0a0,0,0,0,1-.05,0Zm0-.22h.06v0h0s0,0,0,0Zm0,.29s0,0,0,0h0Zm0,.23h0v0h0Zm0-.9h0v0h0Zm0,.07.06,0v0h0A0,0,0,0,1,129.54,52.77Zm0,.38h0v0h0Zm.06.37h0v0h0Zm.15-.25,0-.07h0l0,.07Zm0-.44v0h0l0,0,0,0S129.79,52.86,129.78,52.83Zm0,.37,0,0,0,0,0,0Zm0,.46v0h0v0Zm0-.31h0v0h0Zm0,.1h0v0h0Zm.14-.05,0,0a.13.13,0,0,1-.06-.07l-.09,0,0,0h0v0s0,0,0,0h0v0l0,0h0s0,0,0,0v0Zm-.08,1,0,0s0,0,0,0l0,0S129.87,54.38,129.9,54.37Zm0-1.39v0l-.06,0v0Zm0,.61h0v0h0Zm.05.08s0,0,0,0v0l-.07,0S129.91,53.69,129.94,53.68Zm0-.51s0,0,0,0v0h-.08s0,0,0,0l0,0Zm0,.33v0h0v0Zm0,1v0h0v0Zm0,.38h0l0-.08,0,0,0,.05Q130,54.9,130,54.89Zm0-1.95v0H130l0,.06Zm0,.83h0l0,0h0l0,0S130,53.77,130.07,53.77Zm0-.61h0v0l-.06,0v0S130.06,53.16,130.09,53.15Zm.06,1.83v0l0,0-.05,0v0Zm.06-.7v0s0,0,0,0l0-.06q-.09,0-.1.08v0Zm0-.75v0l0,0v0l0,0h0v0Zm-.06,1.36s0,0,0,0l0-.07h0a.17.17,0,0,1,0,.09v0Zm0-.49v0h0v0Zm0-.77h0v0l-.05,0S130.16,53.63,130.19,53.62Zm0,.84h0s0,0,0,0h0S130.17,54.47,130.2,54.46Zm0-.72h0v0l-.06,0S130.18,53.75,130.2,53.74Zm.11.42v0l-.09,0v0Zm0-.84s0,0,0-.12a.27.27,0,0,0-.11.11v0l0,0v0ZM130.23,52v0h0v0Zm0,2.48v0a0,0,0,0,0,0,0v0Zm0-.65v0h0v0Zm0,.37s0,0,0,0l-.08,0S130.27,54.24,130.29,54.24Zm.06-.7s0-.05,0-.07l-.13.06v0Zm.05.79-.06-.07,0,0,0,.08Zm0,.57v0l-.06,0v0Zm0-2.35h0a.12.12,0,0,0,0-.06s0,0,0-.05v0l-.09,0,0,.08S130.4,52.55,130.42,52.55Zm0,2v-.09h0a0,0,0,0,0,0,0v0Zm0-.55a.12.12,0,0,1,0-.05h0v0Zm0-1.22v0h0v0Zm0,1.55h0s0,0,0,0h0S130.46,54.34,130.49,54.34Zm0-1.47h0l0,0,0,0S130.47,52.87,130.5,52.87Zm0-.27v0a0,0,0,0,0,0,0Zm0,1.92v0s0,.05,0,.07Zm0-2-.06,0,0,0S130.54,52.52,130.53,52.5Zm0,1.6v0h0v0Zm.11-1.95.09,0-.1-.06-.05,0s0,0,0,0h0v0S130.57,52.12,130.63,52.15Zm0,2.52s0,0,.08-.06v0h-.12a.12.12,0,0,1,0,.08v0Zm0-1.65,0,0,0,0,0,0S130.59,53,130.58,53Zm0,1.27h0v0l.07,0h0v0s-.08,0-.1,0h0a.17.17,0,0,1,0,.09Zm.08-1.85s0,0,.05,0h0v0l-.06,0,0,0h0s0,0,0,0,0,0,0,0a.24.24,0,0,1,0,.11Zm0,.66v0l-.06,0v0Zm0,.06v0h0v0Zm.1-.91h0v0s0,0,0,0v0h-.1v0S130.63,52.21,130.68,52.25Zm-.08,1,0,0,0,0h0l0,0v0Zm0,.29,0,0,0,0a0,0,0,0,0,0,0v0Zm.09-1.6v0l0,0-.08,0v0A.17.17,0,0,1,130.7,52Zm0,2v0l-.07,0v0l0,0S130.7,54,130.7,54Zm0-.68s0,0,0,0v0h0a0,0,0,0,0,0,0v0Zm0-.19s0,0,0,0v0Zm.84.62-.34-1.12q-.13-.15-.22-.14l0,.09-.34.1v0l.07.12a5.24,5.24,0,0,0,.19.67s0,0,0,0a.31.31,0,0,1,.08.1A1.07,1.07,0,0,1,131,54l.39-.12S131.5,53.85,131.52,53.75Zm-.83-.59v0h0v0Zm0,.53h0l0-.06-.09,0v0Zm-.06,2.07,0,0h0l0-.08S130.66,55.74,130.67,55.76Zm.13,1.35,0,0v0l0-.06h0s0,0,0,.1,0,0,0,0Zm-.08-1.18v0h0l0,0S130.71,55.9,130.71,55.92Zm.07-2.32v0l0,0h0v0l0,0Zm0,.25s0-.08.07-.09l0,0a0,0,0,0,0,0,0h-.06s0,0,0,0h0v0ZM130.74,56v0h0l0-.06S130.74,56,130.74,56Zm0-1.6v0l.06,0v0Zm.07-.41a.12.12,0,0,1,0-.07s0,0,0,0h0a.18.18,0,0,1,0,.1Zm0-.33v0h0v0Zm0,3.86,0,0a0,0,0,0,0,0,0Zm0-3.34,0,0h0v0Zm0,.07v0h0v0ZM131,54v0h-.06l0-.06v0q-.08.06-.07.09l.06,0v.05Zm-.08,3.55v0a0,0,0,0,0,0,0Zm0-3.24h0v0s0,0-.05,0h0l0,.08S130.91,54.36,130.91,54.35Zm0,2.24h0l.07,0s0,0,0,0l0,0,0,0h0s0,0-.08,0Zm.12-2.37v0h-.06s0,0,0,0v0Zm-.09,2.52s0,0,.12,0l.05,0a.32.32,0,0,1-.13-.07S130.92,56.7,130.91,56.74Zm0-2.28a0,0,0,0,0,0,0l0-.06S130.92,54.44,130.93,54.46ZM131,57v0h0v0Zm0-4.88h0v0S130.94,52.14,130.94,52.16ZM131,57s0,.06,0,.06a.15.15,0,0,0,0,.05h0l0-.08A0,0,0,0,1,131,57Zm0-2.51h0l0-.07h0l0,0S131,54.47,131,54.46ZM131,52.39a.16.16,0,0,1,0,.08l.11-.05-.1-.06Zm0,4.45s0,0,0,0v0a.14.14,0,0,1,.07-.06v0Zm0-2.51v0h0a0,0,0,0,0,0,0Zm0,.69v0h0v0Zm0-.75v0h0v0Zm0,1.07v0s0,0,.05-.09h0S131,55.32,131,55.34Zm0-.69s0,0,0,0l-.06,0Zm0,2.66h0v0s0,0,0,0Zm0-.32q.08,0,.09,0l0,0a0,0,0,0,1-.05,0Zm0-2.21,0,.06h0v-.07Zm0,2.63h0s0,0,.05,0h0A0,0,0,0,1,131.08,57.4Zm0,.06s0,0,.05,0l0,.05,0,0A0,0,0,0,1,131.13,57.46Zm0-.17,0,0h0A0,0,0,0,1,131.15,57.29Zm0-.38h0v0S131.14,56.9,131.15,56.92Zm.06.38v0h0v0Zm0-5.21h.06s0,0,0,0v0l-.06,0S131.17,52.07,131.17,52.09Zm0,3s0,0,.08,0v-.07h0Zm0,.35v0s0,0,0,0Zm0,1.8v0h0v0Zm0-1.75v0h0v0Zm.06,1.94v0h0v0Zm0-5.19v0a0,0,0,0,0,0,0h0v0Zm0,.12v0h0s0,0,0,0v0h0S131.27,52.35,131.28,52.37Zm.1,4.67,0-.07h0l0,.06Zm0-3.95h0v0h0Zm0,1.77v0h0l0-.06S131.39,54.84,131.4,54.86Zm0,1.24v0h0v0Zm0-3.57s0,0,0,0h0Zm0,.19h0v0h0Zm0,1.38v0h0v0Zm0,2.68v0h0v0Zm0-4.15h0l0,0s0,0,0,0Zm0-.48v0h0v0S131.5,52.14,131.48,52.14Zm0,.68h0v0h0Zm0,.26h0v0s0,0,0,0h0A.15.15,0,0,0,131.53,53.08Zm0-.13h0v0h0Zm.05,4.27s0,0,0,0v0Zm0-4.13s0,0,0,0h0v0l0,0S131.63,53.08,131.63,53.09Zm0,.32h0l0,.06h0a.09.09,0,0,1,0,0S131.67,53.4,131.65,53.41Zm0-1.52.06,0v0h0S131.66,51.87,131.67,51.89Zm0,3.68h0v0h0Zm0-1.48h0v0h0Zm0-.77a.12.12,0,0,1-.06,0h0a.08.08,0,0,1,0,0s0,0,0,0h0a.09.09,0,0,1,0,0h0s0,0,.06,0l0,0Zm0,.18v0h0v0Zm0,.08v0l.05,0,0,0v0h.08v0h0s0-.06,0-.07,0,0-.06,0Zm.06-.58h0l0,0,0,0,0,0v0h0l0,0h0l0,0h0v0S131.8,53,131.81,53Zm0,.16h0a.32.32,0,0,1-.06.12l0,0,.06,0v0h0v0s.08,0,.12.13h0a.09.09,0,0,1,0,0s0,0,.05,0h0s0,0,0-.1h0a.33.33,0,0,1-.11.08.1.1,0,0,0,0-.06l0-.06Q131.88,53.15,131.84,53.16Zm0,1.47v0h0A0,0,0,0,1,131.82,54.63Zm0-.91h0s0,0,0,0h0v0Zm0-.47h0s0,0,0,0Zm0-.25v0h0v0Zm.06,0s0,0,0,.05a.09.09,0,0,1,0,0h.1L132,53Zm0,.56v0h0v0Zm0,.18h0Zm0-.11a.09.09,0,0,1,0,0h0a.07.07,0,0,1,0,0s0,0,0,0h0a.08.08,0,0,1,0,0,.09.09,0,0,1,0,0Zm.27-.44q0-.09-.07-.08l0,.07,0,0-.13.09s0,0-.05,0-.06.06-.05.08H132v0h.06l0,0,.07,0h0V53.2l.06,0v0Zm-.22.34v0l0,0,0,0h0s0,0-.06,0v0a.15.15,0,0,1,.1,0l0,0h.06a.17.17,0,0,1-.07-.09v-.05s0,0-.05,0Zm.1,3.22a.15.15,0,0,1,0-.08s0,.05,0,.07v0Zm0-2.64,0,0,.05,0v-.06Zm0-.07h0s0,0,0,0h0S132.12,54,132.1,54Zm0-.29v0h0a.09.09,0,0,1,0,0Zm0-.07a.07.07,0,0,1,0,0h0a0,0,0,0,0,0,0v0Zm.09-.37s0,.07-.07.08l.07,0h0a.26.26,0,0,0,.14,0s0,0,0,0h0v0a0,0,0,0,0,0,0h0a.07.07,0,0,0-.07,0l0-.08,0,0Zm-.06.42h0s0,0,0,0h0v0Zm0-.42v0h0v0Zm0-.92v0Zm0,1.22,0,0h0s0-.06,0-.07l0,0Zm0-.38h0s0,0,.07,0a.1.1,0,0,1,0-.06Zm0,1.23h0l0,0s0,0,0-.05l0,0Zm.06-.83a.1.1,0,0,1,0,.06h0v0S132.34,53.61,132.32,53.61Zm.05-.08h0Zm0,0a.09.09,0,0,1,0,0h0a.09.09,0,0,1,0,0h0Zm.41,3.41h0v0h0Z"/><path class="cls-11" d="M135.17,53.46l-.12,0h0v.11l0,0a2.16,2.16,0,0,0,.07.24l0,.1v0h0s0,0,0,0h0v.09a3.29,3.29,0,0,1,.22.86l.05.1a2.56,2.56,0,0,0,.07.26l0,0a1,1,0,0,0,0,.26h0a.41.41,0,0,0,0,.11l.26-.08.17.57-1.88.57-.17-.57.35-.11-.06-.17s0,0,0,0l0,0q0-.12,0-.13s0,0,0,0l0-.17s0,0,0,0-.06-.25-.15-.53l0,0a3.59,3.59,0,0,1-.1-.45l0,0a2,2,0,0,1-.08-.4l0-.06a5.86,5.86,0,0,0-.19-.65.17.17,0,0,1,0-.07h0a2.9,2.9,0,0,0-.12-.46h0l0,0a4.73,4.73,0,0,1-.28-1l0,0,0-.1h0v-.06l-.42.13-.18-.58,2-.62v0l.07,0q.6-.09.62,0t.18,0q.51.1.79.95s0,0,0,0l0,0a.09.09,0,0,1,0,.06l0,.08a.59.59,0,0,1,0,.2s0,.05.1.18v.06l-.07,0q0,.19,0,.2l0,0s0,0,0,0l0,.17.08,0v0h-.05a.19.19,0,0,1,.06.07l0,0h0v0a0,0,0,0,0,0,0h0a0,0,0,0,1,0,0h-.09s0,.07-.06.09l0,.07h.05v.06h-.13s0,.06-.05.07l.65,1h0a1.53,1.53,0,0,1,.27.38h0a1.43,1.43,0,0,1,.18.27h0a.57.57,0,0,1,.14.24h0v0h0l.1.09s0,0,0,0,0,0,.09,0v0l.27-.09.18.59-.45.14h-.08l-.07,0h0l-.08,0h-.08l0,0h0l-.89.27-.18-.59.21-.06,0,0,0-.07s0,0,0,0a3,3,0,0,0-.33-.43l0-.1v0s-.09-.07-.17-.23a.12.12,0,0,0,0-.05s0,0-.08,0v0a1.77,1.77,0,0,1-.17-.26.18.18,0,0,0,0-.11l0,0-.06-.05.14-.15v0l0,0a.09.09,0,0,0-.06.13l-.06,0,0-.07a.09.09,0,0,1,0-.07.71.71,0,0,1-.14-.15l.08-.06,0-.06,0,0s-.06,0-.1,0v0s.06,0,.05-.07h0s0,0,.05,0,0,0,0,0h0l0,0h0v.07l0,0h0s0,.06.06,0,.06-.06.09-.14-.06,0-.09-.08a.1.1,0,0,1-.08,0l0,0h-.09Zm-2.53-1.92h0v0s0,0,0,0h0v0S132.62,51.54,132.65,51.54Zm.12.6v0h0v0Zm.08.23v0h0v0S132.82,52.38,132.85,52.37Zm.1-.38H133v0l0,0h0v-.11s-.05.05-.06.12,0,0,.05,0Zm0,.61v0h0v0Zm.06-1v0h0v0Zm.19,0v0h0v0Zm0-.12s0,.05,0,.05.06.07.08.06h0l-.05,0v-.09Zm.15-.34s0,0,0,0v0h0Zm0-.05v0h0v.05A0,0,0,0,1,133.38,51.1Zm0,.34v0h0v0Zm0,0,0-.08h0l0,0s0,0,0,.07A0,0,0,0,1,133.42,51.47Zm0-.37v0h0v0Zm.15.48v0h-.09v0s0,0,0,0Zm-.08-.17s0,0,0,0h0s0,0-.06.07Zm0-.3v0h0v0Zm.08.65s0-.06.07-.13h-.06q-.08.07-.08.1S133.58,51.76,133.6,51.75Zm0,.09s0-.06,0-.07h.06v0h0l0,.05h0Zm.1-.39v0h0S133.65,51.46,133.68,51.46Zm.06-.24v.07h0l0-.07Zm.06-.27v0s0,0,0,0Zm.06,1.49,0-.07h0v0S133.83,52.45,133.86,52.44Zm-.05,1.17v0h.06v-.05Zm0,.23.07,0v0l0-.08h0S133.8,53.79,133.81,53.84Zm.06-1.32v-.05h0v0S133.85,52.53,133.87,52.53Zm.06.16,0-.08h0v.05S133.9,52.69,133.93,52.69Zm0,1v0a.17.17,0,0,1,.06.07h0l0-.07s0,0,0,0Zm0,1.45h0v0h0Zm0,.34h0v0h0Zm0-4.1v0h0v0Zm0,2.91h0s0,0,0,0h0S134,54.27,134,54.29Zm0-.2v0h0v0Zm0,1.18v0h0S134,55.28,134,55.27Zm0,.27h0v0h0Zm0-4.68v0h0v0Zm0,4.58h0s0,0,0,0Zm.06-1.91v0l.06,0v0Zm0,1.76h0v0h0Zm0-.24h0v0h0Zm.09-3.67h0a.12.12,0,0,0,0-.06s0,0,0-.05v0l-.09,0,0,.08S134.2,51.4,134.22,51.39Zm-.05,4h0v0h0Zm0-1.37h0s0,0,0,0h0S134.18,54,134.19,54.05Zm0,0v0h0v0Zm0,1.53v0h0v0Zm0-1.67v0a0,0,0,0,0,0,0v0Zm0-2.3v0h0v0Zm0,2.59v0s.07,0,.13,0l-.05,0s0,0,0,0v0Zm0,.86h0v0h0Zm.06-3.38h0l0,0,0,0S134.27,51.71,134.3,51.71Zm0,3.55h0s0,0,0,0Zm0,.37h0v0h0Zm0-4.19v0a0,0,0,0,0,0,0Zm0-.1-.06,0,0,0S134.34,51.36,134.33,51.34Zm0,4s0,0,0,0h0v0s0,0,0,0h0Zm0-3.36v0h0v0Zm0,1.84v0a0,0,0,0,0,0,0h0l0-.08Zm0,1.58s0,0,0,0l.08,0v0h-.06v0Zm.13-4.41.09,0-.1-.06-.05,0s0,0,0,0h0v0S134.37,51,134.43,51Zm-.12,4.72h0v0A0,0,0,0,1,134.31,55.7Zm0-.82v0h0v0Zm.07-3,0,0,0,0,0,0S134.39,51.88,134.39,51.86Zm-.06,3.91,0,0,.08,0a.16.16,0,0,0,0,.13h0A.2.2,0,0,0,134.33,55.77Zm.13-4.49s0,0,.05,0h0v0l-.06,0,0,0h0s0,0,0,0,0,0,0,0a.24.24,0,0,1,0,.11Zm0,.66v0l-.06,0v0Zm0,.06v0h0v0Zm.1-.91h0v0s0,0,0,0v0h-.1v0S134.43,51.05,134.49,51.1Zm-.08,1,0,0,0,0h0l0,0v0Zm0,1.51v0s.05,0,.06.05h0a.16.16,0,0,1,.07-.06v0q-.09,0-.1,0Zm.06-.78h0s-.07,0-.09,0v0S134.41,52.86,134.43,52.86Zm0,1.37v0l.09,0v0Zm0,0,.08,0s0,0,0,0S134.39,54.17,134.39,54.19Zm.11-3.38v0l0,0-.08,0v0A.17.17,0,0,1,134.5,50.81Zm-.11,4.62h0v0h0Zm0-1.64s0,0,.07,0v0Zm0,.21v.09h0V54Zm0,.84h.08v0s0,0,0,0S134.4,54.82,134.41,54.84Zm0,.67s0,0,0,0h0v0l-.05,0Zm0,.05.06,0s0,0,0,0h0Zm0-.7h0v0h0Zm0,1.05v0l.07,0v0A0,0,0,0,1,134.44,55.92Zm0-3.75s0,0,0,0v0h0a0,0,0,0,0,0,0v0Zm0-.19s0,0,0,0v0Zm0,.53v0h0v0Zm.85.09L135,51.47q-.13-.15-.22-.14l0,.09-.34.1v0l.07.12a5.22,5.22,0,0,0,.19.67s0,0,0,0a.31.31,0,0,1,.08.1,1.06,1.06,0,0,1,.08.37l.39-.12S135.3,52.69,135.32,52.59Zm-.83-.59v0h0v0Zm0,.53h0l0-.06-.09,0v0ZM134.46,55h0v0h0Zm0-.31h.06a.12.12,0,0,1,0-.05h0S134.46,54.68,134.47,54.7Zm0,.55,0,.07h0l0-.07Zm0,1.36v0h0v0Zm0-1,.06,0v0l-.06,0Zm0-.49h0v0h0Zm0-2.41v0h0v0Zm0,3s0,0,0,0h0v.06h0v0s0,0,0,0h0A.15.15,0,0,0,134.5,55.7Zm0-1.71h0s0,0,0,0h0S134.49,54,134.5,54Zm0-1.12a.09.09,0,0,1,0-.05s0,0,0,0l0,.08Zm0,.12,0-.07h0l0,.07Zm0,2,0,0s0,0,0,0h0V55h0s0,0,0,0v0h0v0l.09,0a.13.13,0,0,1,0-.09h-.08Zm-.06.26v0h0v0Zm.06-2.84v0l0,0h0v0l0,0Zm-.05,3.36v0h0l.05,0v0h0S134.53,55.79,134.53,55.81Zm0,0v0h0S134.54,55.85,134.56,55.84Zm0-2.75v0h0v0Zm-.05,1.83v0h0v0Zm.06-2.24s0-.08.07-.09l0,0a0,0,0,0,0,0,0h-.06s0,0,0,0h0v0Zm0,.15a.12.12,0,0,1,0-.07s0,0,0,0h0a.18.18,0,0,1,0,.1Zm-.06,1.63v0h0v0Zm0-2v0h0v0Zm0,3.86,0,0a0,0,0,0,0,0,0Zm0-1.72.06,0v0h0S134.59,54.62,134.59,54.64Zm0-.68a.17.17,0,0,1,.06.07h0s0,0,.06-.09v0h0l0,.05v0h0Zm.05,1.77h0v0l-.06,0S134.62,55.74,134.64,55.73Zm0-2.7,0,0h0v0Zm0,2.78h0v0h0Zm0-1.55v0h0l0,0Zm0,.5h.06v0h0S134.64,54.73,134.65,54.75Zm0-1.66v0h0v0Zm0,1v0h0v0Zm0,2.11v0h0v0Zm.13-3.37v0h-.06l0-.06v0q-.08.06-.07.09l.06,0v.05Zm-.12,1.92,0,0s0,0,0,0h0v0h0v0Zm0,1.63v0a0,0,0,0,0,0,0Zm0-3.24h0v0s0,0-.05,0h0l0,.08S134.71,53.2,134.71,53.19Zm.08-.13v0h-.06s0,0,0,0v0Zm-.09,2.16a.12.12,0,0,1,0,.05h0l.07,0v0s0,0,0,0Zm.08-1.5v0l-.06,0v0Zm-.05,1.85v0h.06v0S134.76,55.56,134.73,55.57Zm0-2.26a0,0,0,0,0,0,0l0-.06S134.72,53.29,134.73,53.3Zm0-2.3h0v0S134.74,51,134.75,51Zm.08,2.3h0l0-.07h0l0,0S134.81,53.31,134.83,53.3Zm-.07-2.07a.16.16,0,0,1,0,.08l.11-.05-.1-.06Zm0,4.16v0l.06,0v0Zm.07-2.22v0h0a0,0,0,0,0,0,0Zm0,1.54v0l.14,0s0,0-.07,0Zm0-1.6v0h0v0Zm0,1v.05h.08v0S134.86,54.08,134.81,54.08Zm0,2.41h0v0S134.82,56.47,134.82,56.49Zm0-1.29v0l.06,0v0h0S134.82,55.18,134.82,55.2Zm0-1.71s0,0,0,0l-.06,0Zm.06,1.41v0h0v0a.27.27,0,0,0,.15,0q-.05-.09-.09-.08Zm0-1.29,0,.06h0v-.07Zm0,2.63h0s0,0,.05,0h0A0,0,0,0,1,134.88,56.25Zm0,.06s0,0,.05,0l0,.05,0,0A0,0,0,0,1,134.93,56.3Zm0-1v.07l.05,0v0Zm0-4.41H135s0,0,0,0v0l-.06,0S135,50.92,135,50.93Zm.12,5.35v0h0v0Zm0-5.19v0a0,0,0,0,0,0,0h0v0Zm0,.12v0h0s0,0,0,0v0h0S135.07,51.19,135.08,51.21Zm.11.72h0v0h0Zm0,1.77v0h0l0-.06S135.19,53.68,135.2,53.7Zm.06,2.33v0h0V56Zm0-4.67s0,0,0,0h0Zm0,.19h0v0h0Zm0,1.38v0h0v0Zm0-1.47h0l0,0s0,0,0,0Zm0-.48v0h0v0S135.3,51,135.28,51Zm0,.68h0v0h0Zm0,.26h0v0s0,0,0,0h0A.14.14,0,0,0,135.33,51.92Zm0-.13h0v0h0Zm.09.14s0,0,0,0h0v0l0,0S135.43,51.92,135.43,51.94Zm0,.32h0l0,.06h0a.09.09,0,0,1,0,0S135.47,52.25,135.45,52.25Zm0-1.52.06,0v0h0S135.47,50.71,135.47,50.73Zm.05,2.2h0v0h0Zm0-.77a.12.12,0,0,1-.06,0h0a.08.08,0,0,1,0,0s0,0,0,0h0a.09.09,0,0,1,0,0h0s0,0,.06,0l0,0Zm0,.18v0h0v0Zm0,.08v0l.05,0,0,0v0h.08v0h0s0-.06,0-.07,0,0-.06,0Zm.06-.58h0l0,0,0,0,0,0v0h0l0,0h0l0,0h0v0S135.61,51.84,135.61,51.85Zm0,.16h0a.32.32,0,0,1-.06.12l0,0,.06,0v0h0v0s.08,0,.12.13h0a.09.09,0,0,1,0,0s0,0,.05,0h0s0,0,0-.1h0a.33.33,0,0,1-.11.08.1.1,0,0,0,0-.06l0-.06Q135.68,52,135.64,52Zm0,1.47v0h0A0,0,0,0,1,135.62,53.47Zm0,.28s0,0,.08,0v-.07h0Zm0-1.19h0s0,0,0,0h0v0Zm0-.47h0s0,0,0,0Zm0,2v0s0,0,0,0Zm0,0v0h0v0Zm0,.19v0a0,0,0,0,0,0,0v0h-.06Zm0-2.51v0h0v0Zm0,2.44,0,.06h0l0-.06Zm0-2.45s0,0,0,.05a.09.09,0,0,1,0,0h.1l-.07-.09Zm0,2.53a.14.14,0,0,1,0,.08h.09v0l-.05-.07Zm0-2v0h0v0Zm0,.18h0Zm0-.11a.09.09,0,0,1,0,0h0a.07.07,0,0,1,0,0s0,0,0,0h0a.08.08,0,0,1,0,0,.09.09,0,0,1,0,0ZM136,52q0-.09-.07-.08l0,.07,0,0-.13.09s0,0-.05,0-.06.06-.05.08h.06v0h.06l0,0,.07,0h0V52l.06,0v0Zm-.25,2.45,0,.12v0h.07s0-.05,0-.06a.18.18,0,0,1-.08-.1Zm0-2.11v0l0,0,0,0h0s0,0-.06,0v0a.15.15,0,0,1,.1,0l0,0H136a.17.17,0,0,1-.07-.09v-.05s0,0-.05,0Zm0,2.34q.09.1.12.08a.12.12,0,0,0,0-.05l-.06-.11h0S135.83,54.65,135.82,54.69Zm.07-1.76,0,0,.05,0v-.06Zm0,1.88,0,0a0,0,0,0,0,.05,0s0,0,0,0v0Zm0-1.95h0s0,0,0,0h0S135.92,52.86,135.9,52.87Zm0,2,0,.06h0V55h.09a.16.16,0,0,1,0-.1,0,0,0,0,1-.05,0s0,0,0,0Zm0-2.34v0h0a.09.09,0,0,1,0,0Zm0-.07a.07.07,0,0,1,0,0h0a0,0,0,0,0,0,0v0Zm.09-.37s0,.07-.07.08l.07,0h0a.26.26,0,0,0,.14,0s0,0,0,0h0v0a0,0,0,0,0,0,0h0a.07.07,0,0,0-.07,0l0-.08,0,0Zm-.06.42h0s0,0,0,0h0v0Zm0-.42v0h0v0Zm0,2.91v0h0v0Zm0-3.84v0Zm0,1.22,0,0h0s0-.06,0-.07l0,0Zm0,2.71v0s0,0,0,0v0S136,55.13,136,55.15Zm0-3.09h0s0,0,.07,0a.1.1,0,0,1,0-.06Zm0,1.23h0l0,0s0,0,0-.05l0,0Zm0,.94h0v0h0Zm0,.92v0s0,0,0,0Zm0-2.68a.1.1,0,0,1,0,.06h0v0S136.14,52.45,136.12,52.46Zm0,2.8,0,.08h0a.12.12,0,0,1,0-.07h-.07Zm0-2.88h0Zm0,3v0h0v0Zm0,0v0l0,.13h0v-.16Zm0-3a.09.09,0,0,1,0,0h0a.09.09,0,0,1,0,0h0Zm.13,3.35v.09l0,0,0-.08Zm0,.1v0l0,0h0Zm0,.08v0h0v0Zm.11-.53a.15.15,0,0,1,0-.08s0,.05,0,.07v0Zm-.06.18v0h0v0Zm0-1.53,0,.12h0V54Zm.21.55a.28.28,0,0,1,0,.21l0,0s0-.07.06-.13l0-.06h-.11Zm0,.46a0,0,0,0,0,.05,0l0-.06S136.67,55,136.67,55Zm0,.65a0,0,0,0,0,.05,0s0,0,0,0Zm0,.3a0,0,0,0,0,.05,0h0s0,0-.05,0Zm.07-1a0,0,0,0,0,.05,0h0s0,0-.05,0Zm0,.08a.12.12,0,0,1,0,.05h0s0,0,0,0h0Zm0-.43v0h0Zm0,.59a.14.14,0,0,1,0,.05h0s0,0,0-.07v0Zm0-.35,0,0,.06,0S137,54.84,137,54.84Zm0,.92v0h0l.05-.06,0,0a.07.07,0,0,0,0-.05h0S137,55.71,137,55.76Zm0,.15v0l.06,0v0Zm0-.43v0h0v0Zm0-.46v0l.08,0,0,0Zm0-.09v0l.06,0v0Zm0-.17a.12.12,0,0,1,0,.05h0l0,0Zm0,.7a0,0,0,0,0,.05,0v0Zm.07.38v0l0,0h0Zm0-.39v0l.06,0v0Zm0,0v0h0v0Zm0,.13h0v0h0Zm.06,0s0,0,.06,0,.07-.06.06-.08l0-.1S137.34,55.54,137.3,55.63Z"/><path class="cls-11" d="M136.63,49.73l0,0h0s0,0-.07,0v0Zm-.07.11h.08q0,.09,0,.1h0v0s0,0,0,0l0,0ZM140,52.15l-.13,0-.07,0h-.1l-.09,0,0,0-.15.06a.05.05,0,0,0-.08,0v0h0l0,0h-.12l-.05,0,0,.07s0,.09,0,.15h0v.09l.12.33a.16.16,0,0,1,0,.07h0l0,.12.16.43s0,0,0,0l0,0v0h0l0,.12.08.21v.09l.73-.2-.17-.56.7-.21.43,1.4-.21.06,0,0-.37.11v0l-2.45.75-.19-.62.47-.14-.26-.69q-.06-.16-.13-.4l0,0-.23-.86,0,0q-.29-.93-.7-2.32l-.42.13-.19-.62.43-.13v0l0,0h0l.18-.07.27-.08h.09s0,0,0,0l.26-.06,1.07-.31h0l.7-.21.43,1.4-.7.21-.18-.6h0l-.07,0h-.08l-.13.06,0,0-.14.08,0,0s0,0,0,0l-.08,0,0,0-.08,0h-.07l-.16.08.14.38,0,.11a.15.15,0,0,1,.05.07h0l0,0v0s0,0,0,0l0,0,0,.11,0,0h0v.11s0,0,0,0v.09l.07.2.88-.25Zm-2.91-2a0,0,0,0,0,.05,0h0a0,0,0,0,0-.05,0Zm.44.31v0h0v0Zm0-.49v0h0v0Zm.07.91v0h0v0Zm0,.18v0s0,0,0,0Zm.09-.37v0h0v0Zm0-.83v0h0v0Zm.31,2q0-.08-.16-.1v0s0,0,0,.08v0Zm-.13.08,0-.07h0l0,.07Zm0-1.61v0s0,0,0,0v0S137.87,50.26,137.88,50.28ZM138,52v0h-.09a.48.48,0,0,1,.06.13h0S138,52,138,52Zm-.08-2v0h0v0Zm.16,2.52v0h0v0Zm0,.18,0-.11h0l0,.11Zm0-.86,0-.07h0l0,.07Zm.16.17,0-.09h0l0,.07-.14,0a.39.39,0,0,1,0,.14l.05,0h0l0-.07h0v.11h0S138.32,52.06,138.32,52Zm-.21-1.57v0h0v0Zm.21,2s0-.06-.06-.06h0s0,.07.06.06Zm0,.41v-.08s0-.06-.06-.05a.41.41,0,0,1,0,.1Zm.05.17s0-.06-.06-.06,0,0,0,.08Zm0,.41v0h0v0Zm0-1,0-.07s0,0,0,.08Zm0,.73v0l-.06,0v0Zm0-.68,0-.07h0l0,.07Zm0-.52v0h0v0Zm0,1.69,0-.07h0l0,.07Zm0,.82h0l0,0S138.52,54.38,138.52,54.4Zm0-4.63h0a0,0,0,0,0,0,0v0A0,0,0,0,0,138.57,49.77Zm.16,3.65,0-.07-.14,0,.05.1Zm-.06-1.58v0s0-.06-.06-.06h0v0s0,.06.06.05Zm0,.43s0,0,0,0a.45.45,0,0,1-.06-.13.13.13,0,0,1-.07.06S138.65,52.23,138.72,52.27Zm0,1.52,0-.1-.06,0a.41.41,0,0,1,0,.1s0,0,0,0S138.7,53.79,138.72,53.79Zm.14-1.67q-.2-.2-.22-.19V52Q138.75,52.15,138.86,52.12Zm-.2,2.54v0h0A0,0,0,0,0,138.66,54.66Zm.13-2.82,0-.14h0q0,.15,0,.16v0h0A.11.11,0,0,1,138.79,51.84Zm0,.94,0-.07h0l0,.07Zm0-.19v0h0v0Zm0-.08,0-.07h0l0,.07Zm0,.84v0s0-.06-.06-.05v0S138.78,53.36,138.81,53.35Zm0-.25v0h0v0Zm0,.94v0h0v0Zm0-4.21v0h0v0Zm0,3.54h0l0,.07S138.89,53.41,138.88,53.37Zm0-.3v0h0v0Zm0,.66v0h0v0Zm0-1v0h0v0ZM139,54s0-.06-.06-.05h0l0,.14h0S139,54,139,54Zm0-.33h0l0,.07S139,53.68,139,53.64Zm0-.56v0h0v0Zm.05-.27v0h0v0Zm.07.09,0-.07-.06,0,0,.07Zm0,.76s0-.06-.06-.05h0s0,0,0,.08Zm0-.55,0-.07h0l0,.07Zm0,1.89v0h0v0Zm0-.5v0h0v0Zm.06-.69v0h0v0Zm0,.85v0h0v0Zm.05-1.41v0h0l0,.1S139.15,53.29,139.14,53.25Zm.09.42,0,.14h0l0-.14Zm.11-4,0,0h0v0A0,0,0,0,0,139.34,49.68Zm0,5.16v0s0,0,0,0h0S139.37,54.82,139.38,54.84Zm0-5,0,.08s0,0,0,0v0Zm0,2.07v0h0v0Zm0,2.66v0h0v0Zm0-2.35a0,0,0,0,0,.05,0v0Zm.15,2.78v0h0v0Zm.05-1.32,0,.07h0l0-.07Zm.2-1.91a.12.12,0,0,1,0,.05h0s0,0,0,0,0,0,0,0Zm0,.18v0H140v0l0,0h0S139.93,51.88,139.92,51.92Zm0,2.46v0a0,0,0,0,0,0,0h0s0,0,0,0l0,0Zm0-.09,0,0h0s0,0,0,0h0Zm.32-.1q0,.15-.06.16s0,0,0,0h0v0a0,0,0,0,0,.05,0h0l.07,0h.09a.12.12,0,0,0,0-.11l.11,0v0l-.08,0s0,0,0,0Zm0,.22v0h0v0Z"/><path class="cls-11" d="M144.52,52.62h0a.38.38,0,0,1,0,.16,1.67,1.67,0,0,1,0,.25v0l0,.06q0,.08,0,.15l0,0s0,.06,0,.06h0l-.07.11v0l0,0h0v0h0q-.14,0-.29.33a1.76,1.76,0,0,1-.39.21l-.23.07a.91.91,0,0,1-.36,0l0-.06h0a.35.35,0,0,1-.3,0l0,.16-.8.24-.24-.79h0v0h0v0a0,0,0,0,1,0,0v0s0-.06,0-.06l0-.08,0-.14a.91.91,0,0,1,0-.16l-.07-.09a1.11,1.11,0,0,1,0-.19v0h0s0,0,0-.05l.15,0h.1l.11-.05.11,0h.08l.38-.13a.19.19,0,0,1,.15.14l0,.07s0,.06,0,.06l0,.08.07.23a.12.12,0,0,1,0,.07.13.13,0,0,1,0,.06l.05.17s.07.08.16.13a0,0,0,0,1,0,0l0-.06h0a.2.2,0,0,1-.11.11s0,0,0,0v0h0v0a0,0,0,0,0,0,0l.09,0v0s0,0,0,.07l-.06,0s0,0,0,0h0v0l-.06,0s0,0,0,0a.15.15,0,0,1,.06.07h0q.13,0,.12-.09l.09,0v.06h.06l0-.1h0s0,0-.12,0,0,.07,0,.08l0,0v0s0,0,0,0l.09,0s0,0,.06.05h0l-.06-.11,0,0h0s0,0,0,0l0,0,.05,0,0-.06,0,0h0l0-.07.06,0a.21.21,0,0,0,.15-.13.41.41,0,0,0,0-.1v0h0v-.05l0-.09h0q0-.1-.06-.25l0-.13s0,0,0,0l0,0s0,0,0,0a1,1,0,0,0-.8-.6.82.82,0,0,0-.28-.12q0-.11-.7-.37a1.52,1.52,0,0,1-.62-.49h0a1.17,1.17,0,0,1-.18-.27h0a1.18,1.18,0,0,1-.15-.29q0-.15,0-.17l0,0,0-.06s0,0,.07-.06l0-.06-.06,0a3.78,3.78,0,0,1,0-.44h0a1,1,0,0,1,.16-.42l0,0,0,0h0v0h0l0,0a1.36,1.36,0,0,1,.19-.2l.06-.11a1.76,1.76,0,0,1,.39-.21l.23-.07a.91.91,0,0,1,.36,0l0,.06h0a.35.35,0,0,1,.3,0l0-.16.8-.24.24.79v0h0v0a0,0,0,0,1,0,0v0s0,.06,0,.06l0,.08,0,.14a.91.91,0,0,1,0,.16l.07.09a1.11,1.11,0,0,1,0,.19v0h0s0,0,0,.05l-.15,0h-.1l-.11.05-.11,0H143l-.38.13a.19.19,0,0,1-.15-.14l0-.07s0-.06,0-.06l0-.08-.07-.23a.12.12,0,0,1,0-.07.13.13,0,0,1,0-.06l-.05-.17s-.07-.08-.16-.13a0,0,0,0,1,0,0l0,.06h0a.2.2,0,0,1,.11-.11s0,0,0,0v0h0v0a0,0,0,0,0,0,0l-.09,0v0s0,0,0-.07l.06,0s0,0,0,0h0v0l.06,0s0,0,0,0a.15.15,0,0,1-.06-.07h0q-.13,0-.12.09l-.09,0v-.06H142l0,.1h0s0,0,.12,0,0-.07,0-.08l0,0v0s0,0,0,0L142,49s0,0-.06-.05h0l.06.11,0,0h0s0,0,0,0l0,0h0l.05.18h0a.45.45,0,0,0-.21.14.53.53,0,0,0,0,.21l0,.09-.08,0q0,.2.2.63.1.28,1,.61a2.73,2.73,0,0,1,1,.51s.1,0,.17.18a.81.81,0,0,0,.21.18q.17.41.21.4A1.63,1.63,0,0,1,144.52,52.62Zm-3.82-2.3v0h0v0Zm0-1v0h0v0Zm0,.08v0s0,0,0,0Zm0,.6v0h0v0Zm.1-.81v0h0v0Zm.06.53v0h0v0Zm.12-.23v0s0,0,0,0Zm.27-.64v0h-.09s0,0,0,.07Zm.27,1h-.06l0,.05h0S141.52,49.85,141.51,49.82Zm0,.22v0a0,0,0,0,0,0,0Zm.17-.53-.05-.17,0-.06h-.09l.08.26Zm.09,3.49.07,0,.06-.08,0,0h0a0,0,0,0,0,0,0h0l-.11,0s0,0,0,.07h0v0s0,0,.06.07S141.77,53,141.76,53Zm-.08-3.81v0h0v0Zm0,.4v0h0v.08S141.68,49.62,141.67,49.59Zm.1.33-.08-.26h0a.2.2,0,0,1,0,.17q.08.05.09.09Zm0,3.53s0-.07,0-.08l0,0-.06,0v0l0,.08Zm0-.39h0v0h0Zm.06-.14v0h0v0Zm.14.74-.08-.07a0,0,0,0,0,0,0h-.09v0a.19.19,0,0,1,.12.06s0,0,0,0h0S141.92,53.67,141.92,53.66Zm-.1-3.66v0l0,0h0l0,.07Zm0,3.08v0l-.06,0v0Zm0,.2,0,0h0s0,0,0,.1h0A.16.16,0,0,1,141.86,53.28Zm0-.11,0,0h0l0,.05Zm0,.35,0-.05h0l0,.05Zm.16-.39v0q-.08-.05-.1-.09t-.1.09v0a.12.12,0,0,1,.15.06Zm-.11-.05v0h0v0Zm.07.23h-.1v0s.06,0,.07,0S142,53.31,142,53.29Zm0-.13v0h0v0Zm0-.25v0h0v0Zm0,.21v0a0,0,0,0,0,0,0l0,.07Zm0,.54v0l-.06,0v0Zm.1-.41,0-.07a0,0,0,0,0,0,0l0,.1Zm.06.34v0a0,0,0,0,0,0,0l-.05,0v0Zm0-4.38h0a.15.15,0,0,0-.06-.07l0,0h0v0s0,0,0,0Zm0,.27h0l0-.07,0-.08v0h0s0,0,0,0h.06v0s-.05,0,0,0v0l.11,0v0a0,0,0,0,1,0,0l-.07,0Q142.34,49.47,142.31,49.48Zm.24,2v0h0l-.05,0,0,0v0l.09,0a.15.15,0,0,1,.09-.1s-.06,0-.16,0l0,0v0h-.06v0h0a0,0,0,0,1,0,0,0,0,0,0,0-.05,0s0,0-.06.07S142.46,51.51,142.55,51.48Zm-.06,2.62,0-.09s0,0,0,0h0l.09.09s0,0,0,0Zm-.06-4.64h0v0s0,0,0,0Zm0,4.27,0-.05a0,0,0,0,0,0,0h0l0,.08Zm0,.11a0,0,0,0,0,0,0v0Zm.09-4.14,0-.06a.17.17,0,0,1-.09,0l0,.08h0A.15.15,0,0,1,142.56,49.7Zm0,.09h0v0S142.51,49.81,142.51,49.79Zm0,4v0h0v0Zm.09-3.89v0l0,0a0,0,0,0,0,0,0h-.06s0,0,0,0h.07v.05Zm.08,3.58v0s0,0-.05,0h0s0,.06-.06.07v0h.06l.05,0S142.68,53.5,142.69,53.5Zm-.06-1.88,0,0s0,0,0,0h-.06a.1.1,0,0,1,0,.07h.06Zm0-.11v0h0l-.05,0v0h0Zm0-.05v0l-.06,0v0Zm.19-2.06a.38.38,0,0,0-.12-.13v0l-.06,0s0,0,0,.07v0l0-.05s.07,0,.12.12h0Zm-.14,4.43v0l-.06,0v0Zm0,.28s0-.06,0-.06v0l-.06,0s0,0,0,.11Zm0-1.24h0s0,0,0,0Zm0,.9v0h0v0Zm.06-4v0l-.05,0v0h0s0,0,0,0v0s0,0,.07,0Zm0,.1a.16.16,0,0,1,0-.08h0s0,0,0,0l0,0Zm0,2v0h0v0Zm0-.6h0v0S142.85,51.28,142.84,51.26Zm.13-.17-.08,0s0,0,0,0S143,51.1,143,51.08Zm0,3v0l0-.05h0l-.05,0S143,54.13,143,54.12ZM143.1,52v0l0,0H143l-.05,0v0Zm.07,2.08a.12.12,0,0,1,0-.05.16.16,0,0,0-.13,0,0,0,0,0,0,0,0v0s.07,0,.09.09Zm-.14.08v0h0v0Zm.15-.26v0h0v0Zm0-1.89v0h0v0Zm0-1.12v0h0v0Zm.17,3.07s0,0,.06-.06v0h0l0-.05v0s0,0,0,0,0,0,0,0l-.12,0a.22.22,0,0,1,0,.13s0,0,0,0a.18.18,0,0,1-.1.07l0,0h0s0-.05,0-.06h0S143.33,54,143.37,54Zm-.14.1v0a0,0,0,0,0,0,0v0S143.24,54.07,143.23,54Zm0-2.26v0h0v0Zm.08-.61,0-.09-.09,0v0A.19.19,0,0,1,143.33,51.18Zm-.05.77,0-.09s0,0,0,.1Zm0-1.86,0,0,0-.05s0,0,0,0Zm.06,1.41a0,0,0,0,0,0,0v0Zm.05,2.56v0h0v0Zm0-2.43v0h0v0Zm0,0v0h0v0Zm0-.13v0h0v0Zm0,.24v0h0v0Zm0,.19v0l-.06,0v0Zm0-.55,0-.09h0l0,.08Zm0,2.41a0,0,0,0,0,0,0h0a0,0,0,0,0,0,0Zm0-2.53v0h0v0Zm0-2.94v0h0v0A0,0,0,0,1,143.46,48.29Zm0,4v0h0v0Zm0-.62,0,0h0v0s0,0,0,0Zm0,2.26-.06,0s0,0,0,.07h0S143.58,53.91,143.58,53.89Zm-.06-4h0v0h0Zm.08,2v0l-.06,0v0Zm0,.77v0l-.06,0a0,0,0,0,0,0,0h0Zm0,.13v0l-.06,0v0Zm0,.91v0h0S143.59,53.75,143.62,53.74Zm0-.19v0h0v0Zm.09-.92,0-.05,0,0h0v0h0s.05,0,.06.06Zm0,.39a.17.17,0,0,1,0-.11h0v0h-.08v0a0,0,0,0,0,0,0Zm0,.73h-.06a0,0,0,0,0,0,0v0l.06,0S143.71,53.77,143.7,53.75Zm0-.92v0h0v0Zm0,1v0h0v0Zm0-.22-.06,0,0,.05S143.74,53.67,143.75,53.63Zm0-.32v0h0s0,0,0,0v0h0S143.76,53.33,143.75,53.3Zm0,.05h0s0,0,0,0h0S143.78,53.38,143.77,53.36Zm0,.09a0,0,0,0,0,0,0v0Zm.08-.35,0-.1a.35.35,0,0,0-.1.2h0A.24.24,0,0,1,143.88,53.1Zm-.06-.41h0s0,0,0,0h0S143.82,52.7,143.81,52.68Zm0,.35v0h0S143.77,53,143.79,53Zm0-.09v0l-.08,0v0Zm0,.31v0h0v0Zm0-.8v0h0v0Zm.08,1.13-.07,0h0l0,.07h0S143.89,53.61,143.88,53.59Zm.19-1.14s0,0-.12,0h0v0h0v0l-.08,0a0,0,0,0,1,0,0v0h0s0,0,0,0l.08.05a0,0,0,0,0,0,0h.1S144.08,52.47,144.07,52.45Zm-.22-.46v-.06l-.05,0A0,0,0,0,0,143.85,52Zm0,1.55v0h0v0Zm0-.57v0h0v0Zm0-.29v-.12h0v.12Zm0,.09v0h0v0Zm0-.5a.12.12,0,0,1,0-.05v0h0s0,0,0,0S143.89,52.28,143.91,52.27Zm0,.41v0h0v0Zm0-.05v0h0v0Zm.09-.39h0l-.09,0v0l.08,0S144,52.26,144,52.24Zm.07-.45v0H144s0,0,.11,0Zm0,1.05v0h0s0,0,0,.07h0Zm0-.87v0H144v0h0Zm0,1v0h0v0Zm0,.37a0,0,0,0,0,0,0v0Zm0-.72v0h0v0Zm0-.3v0h0v0Zm.11.83,0,0h0v0h0s0,0,0,0v0h0s0,.06-.07.11h0Zm-.09.1v0h0v0Zm0-.29v0h0a0,0,0,0,0,0,0Zm0-.81v0h0v0Zm0,.34v0s0,0,0,0Zm0,1v0h0v0Zm.11-.45s0-.06,0-.13l0-.07h-.06l-.05,0,0,0,0,0h0v0s0,.07-.11.13l0,0ZM144.18,52v0h0v0Zm.07.51v0l-.06,0v0Zm.11.63h0v-.05l-.08,0,0,.07h0l0,0v0S144.37,53.14,144.36,53.12Zm0,.09v0h0v0Zm0,0v0h0v0Z"/><path class="cls-11" d="M147.86,51.6h0a.38.38,0,0,1,0,.16,1.67,1.67,0,0,1,0,.25v0l0,.06q0,.08,0,.15l0,0s0,.06,0,.06h0l-.07.11v0l0,0h0v0h0q-.14,0-.29.33A1.76,1.76,0,0,1,147,53l-.23.07a.91.91,0,0,1-.36,0l0-.06h0a.35.35,0,0,1-.3,0l0,.16-.8.24-.24-.79h0v0h0v0a0,0,0,0,1,0,0v0s0-.06,0-.06l0-.08,0-.14a.91.91,0,0,1,0-.16l-.07-.09a1.11,1.11,0,0,1,0-.19v0h0s0,0,0-.05l.15,0h.1l.11-.05.11,0h.08l.38-.13a.19.19,0,0,1,.15.14l0,.07s0,.06,0,.06l0,.08.07.23a.12.12,0,0,1,0,.07.13.13,0,0,1,0,.06l.05.17s.07.08.16.13a0,0,0,0,1,0,0l0-.06h0a.2.2,0,0,1-.11.11s0,0,0,0v0h0v0a0,0,0,0,0,0,0l.09,0v0s0,0,0,.07l-.06,0s0,0,0,0h0v0l-.06,0s0,0,0,0a.15.15,0,0,1,.06.07h0q.13,0,.12-.09l.09,0v.06h.06l0-.1h0s0,0-.12,0,0,.07,0,.08l0,0v0s0,0,0,0l.09,0s0,0,.06.05h0l-.06-.11,0,0h0s0,0,0,0l0,0,.05,0,0-.06,0,0h0l0-.07.06,0a.21.21,0,0,0,.15-.13.41.41,0,0,0,0-.1v0h0V52l0-.09h0q0-.1-.06-.25l0-.13s0,0,0,0l0,0s0,0,0,0a1,1,0,0,0-.8-.6.82.82,0,0,0-.28-.12q0-.11-.7-.37a1.52,1.52,0,0,1-.62-.49h0a1.17,1.17,0,0,1-.18-.27h0a1.18,1.18,0,0,1-.15-.29q0-.15,0-.17l0,0,0-.06s0,0,.07-.06l0-.06-.06,0a3.78,3.78,0,0,1,0-.44h0a1,1,0,0,1,.16-.42l0,0,0,0h0v0h0l0,0a1.36,1.36,0,0,1,.19-.2l.06-.11a1.76,1.76,0,0,1,.39-.21l.23-.07a.91.91,0,0,1,.36,0l0,.06h0a.35.35,0,0,1,.3,0l0-.16.8-.24.24.79v0h0v0a0,0,0,0,1,0,0v0s0,.06,0,.06l0,.08,0,.14a.91.91,0,0,1,0,.16l.07.09a1.11,1.11,0,0,1,0,.19v0h0s0,0,0,.05l-.15,0h-.1l-.11.05-.11,0h-.08L146,49a.19.19,0,0,1-.15-.14l0-.07s0-.06,0-.06l0-.08-.07-.23a.12.12,0,0,1,0-.07.13.13,0,0,1,0-.06l-.05-.17s-.07-.08-.16-.13a0,0,0,0,1,0,0l0,.06h0a.2.2,0,0,1,.11-.11s0,0,0,0v0h0v0a0,0,0,0,0,0,0l-.09,0v0s0,0,0-.07l.06,0s0,0,0,0h0v0l.06,0s0,0,0,0a.15.15,0,0,1-.06-.07h0q-.13,0-.12.09l-.09,0v-.06h-.06l0,.1h0s0,0,.12,0,0-.07,0-.08l0,0v0s0,0,0,0l-.09,0s0,0-.06-.05h0l.06.11,0,0h0s0,0,0,0l0,0h0l.05.18h0a.45.45,0,0,0-.21.14.53.53,0,0,0,0,.21l0,.09-.08,0q0,.2.2.63.1.28,1,.61a2.73,2.73,0,0,1,1,.51s.1,0,.17.18a.81.81,0,0,0,.21.18q.17.41.21.4A1.63,1.63,0,0,1,147.86,51.6ZM144,49.31v0h0v0Zm0-1v0h0v0Zm0,.08v0s0,0,0,0Zm0,.6v0h0v0Zm.1-.81v0h0v0Zm.06.53v0h0v0Zm.12-.23v0s0,0,0,0Zm.27-.64v0h-.09s0,0,0,.07Zm.27,1h-.06l0,.05h0S144.86,48.83,144.86,48.81Zm0,.22v0a0,0,0,0,0,0,0Zm.17-.53-.05-.17,0-.06h-.09l.08.26ZM145.1,52l.07,0,.06-.08,0,0h0a0,0,0,0,0,0,0h0l-.11,0s0,0,0,.07h0v0s0,0,.06.07S145.11,52,145.1,52ZM145,48.17v0h0v0Zm0,.4v0h0v.08S145,48.61,145,48.57Zm.1.33-.08-.26h0a.2.2,0,0,1,0,.17q.08.05.09.09Zm0,3.53s0-.07,0-.08l0,0-.06,0v0l0,.08Zm0-.39h0v0h0Zm.06-.14v0h0v0Zm.14.74-.08-.07a0,0,0,0,0,0,0h-.09v0a.19.19,0,0,1,.12.06s0,0,0,0h0S145.26,52.65,145.26,52.64Zm-.1-3.66v0l0,0h0l0,.07Zm0,3.08v0l-.06,0v0Zm0,.2,0,0h0s0,0,0,.1h0A.16.16,0,0,1,145.2,52.26Zm0-.11,0,0h0l0,.05Zm0,.35,0-.05h0l0,.05Zm.16-.39v0q-.08-.05-.1-.09t-.1.09v0a.12.12,0,0,1,.15.06Zm-.11-.05v0h0v0Zm.07.23h-.1v0s.06,0,.07,0S145.36,52.29,145.35,52.27Zm0-.13v0h0v0Zm0-.25v0h0v0Zm0,.21v0a0,0,0,0,0,0,0l0,.07Zm0,.54v0l-.06,0v0Zm.1-.41,0-.07a0,0,0,0,0,0,0l0,.1Zm.06.34v0a0,0,0,0,0,0,0l-.05,0v0Zm0-4.38h0a.15.15,0,0,0-.06-.07l0,0h0v0s0,0,0,0Zm0,.27h0l0-.07,0-.08v0h0s0,0,0,0h.06v0s-.05,0,0,0v0l.11,0v0a0,0,0,0,1,0,0l-.07,0Q145.69,48.45,145.65,48.47Zm.24,2v0h0l-.05,0,0,0v0l.09,0a.15.15,0,0,1,.09-.1s-.06,0-.16,0l0,0v0h-.06v0h0a0,0,0,0,1,0,0,0,0,0,0,0-.05,0s0,0-.06.07S145.8,50.49,145.89,50.47Zm-.06,2.62,0-.09s0,0,0,0h0l.09.09s0,0,0,0Zm-.06-4.64h0v0s0,0,0,0Zm0,4.27,0-.05a0,0,0,0,0,0,0h0l0,.08Zm0,.11a0,0,0,0,0,0,0v0Zm.09-4.14,0-.06a.17.17,0,0,1-.09,0l0,.08h0A.15.15,0,0,1,145.9,48.69Zm0,.09h0v0S145.86,48.8,145.85,48.78Zm0,4v0h0v0ZM146,48.9v0l0,0a0,0,0,0,0,0,0h-.06s0,0,0,0h.07v.05Zm.08,3.58v0s0,0-.05,0h0s0,.06-.06.07v0H146l.05,0S146,52.48,146,52.48ZM146,50.6l0,0s0,0,0,0h-.06a.1.1,0,0,1,0,.07H146Zm0-.11v0h0l-.05,0v0h0Zm0-.05v0l-.06,0v0Zm.19-2.06a.38.38,0,0,0-.12-.13v0l-.06,0s0,0,0,.07v0l0-.05s.07,0,.12.12h0Zm-.14,4.43v0l-.06,0v0Zm0,.28s0-.06,0-.06v0L146,53a1.09,1.09,0,0,1,0,.11Zm0-1.24h0s0,0,0,0Zm0,.9v0h0v0Zm.06-4v0l-.05,0v0h0s0,0,0,0v0s0,0,.07,0Zm0,.1a.16.16,0,0,1,0-.08h0s0,0,0,0l0,0Zm0,2v0h0v0Zm0-.6h0v0S146.19,50.26,146.18,50.24Zm.13-.17-.08,0s0,0,0,0S146.32,50.09,146.32,50.07Zm0,3v0l0-.05h0l-.05,0S146.31,53.11,146.33,53.1Zm.12-2.13v0l0,0h-.06l-.05,0v0Zm.07,2.08a.12.12,0,0,1,0-.05.16.16,0,0,0-.13,0,0,0,0,0,0,0,0v0s.07,0,.09.09Zm-.14.08v0h0v0Zm.15-.26v0h0v0Zm0-1.89v0h0v0Zm0-1.12v0h0v0Zm.17,3.07s0,0,.06-.06v0h0l0-.05v0s0,0,0,0,0,0,0,0l-.12,0a.22.22,0,0,1,0,.13s0,0,0,0a.18.18,0,0,1-.1.07l0,0h0s0-.05,0-.06h0S146.68,52.95,146.71,52.93Zm-.14.1v0a0,0,0,0,0,0,0v0S146.58,53.05,146.58,53Zm0-2.26v0h0v0Zm.08-.61,0-.09-.09,0v0A.19.19,0,0,1,146.68,50.16Zm-.05.77,0-.09s0,0,0,.1Zm0-1.86,0,0,0-.05s0,0,0,0Zm.06,1.41a0,0,0,0,0,0,0v0Zm.05,2.56v0h0v0Zm0-2.43v0h0v0Zm0,0v0h0v0Zm0-.13v0h0v0Zm0,.24v0h0v0Zm0,.19v0l-.06,0v0Zm0-.55,0-.09h0l0,.08Zm0,2.41a0,0,0,0,0,0,0h0a0,0,0,0,0,0,0Zm0-2.53v0h0v0Zm0-2.94v0h0v0A0,0,0,0,1,146.8,47.27Zm0,4v0h0v0Zm0-.62,0,0h0v0s0,0,0,0Zm0,2.26-.06,0s0,0,0,.07h0S146.93,52.89,146.92,52.87Zm-.06-4h0v0h0Zm.08,2v0l-.06,0v0Zm0,.77v0l-.06,0a0,0,0,0,0,0,0h0Zm0,.13v0l-.06,0v0Zm0,.91v0h0S146.94,52.73,147,52.72Zm0-.19v0h0v0Zm.09-.92,0-.05,0,0h0v0h0s.05,0,.06.06Zm0,.39a.17.17,0,0,1,0-.11h0v0H147v0a0,0,0,0,0,0,0Zm0,.73H147a0,0,0,0,0,0,0v0l.06,0S147.05,52.76,147,52.73Zm0-.92v0h0v0Zm0,1v0h0v0Zm0-.22-.06,0,0,.05S147.08,52.65,147.09,52.61Zm0-.32v0h0s0,0,0,0v0h0S147.1,52.31,147.1,52.29Zm0,.05h0s0,0,0,0h0S147.12,52.36,147.11,52.34Zm0,.09a0,0,0,0,0,0,0v0Zm.08-.35,0-.1a.35.35,0,0,0-.1.2h0A.24.24,0,0,1,147.22,52.08Zm-.06-.41h0s0,0,0,0h0S147.16,51.68,147.16,51.66Zm0,.35v0h0S147.11,52,147.14,52Zm0-.09v0l-.08,0v0Zm0,.31v0h0v0Zm0-.8v0h0v0Zm.08,1.13-.07,0h0l0,.07h0S147.23,52.59,147.22,52.57Zm.19-1.14s0,0-.12,0h0v0h0v0l-.08,0a0,0,0,0,1,0,0v0h0s0,0,0,0l.08.05a0,0,0,0,0,0,0h.1S147.42,51.45,147.42,51.43Zm-.22-.46v-.06l-.05,0A0,0,0,0,0,147.19,51Zm0,1.55v0h0v0Zm0-.57v0h0v0Zm0-.29v-.12h0v.12Zm0,.09v0h0v0Zm0-.5a.12.12,0,0,1,0-.05v0h0s0,0,0,0S147.23,51.26,147.26,51.25Zm0,.41v0h0v0Zm0-.05v0h0v0Zm.09-.39h0l-.09,0v0l.08,0S147.38,51.24,147.37,51.22Zm.07-.45v0h-.12s0,0,.11,0Zm0,1.05v0h0s0,0,0,.07h0Zm0-.87v0h-.08v0h0Zm0,1v0h0v0Zm0,.37a0,0,0,0,0,0,0v0Zm0-.72v0h0v0Zm0-.3v0h0v0Zm.11.83,0,0h0v0h0s0,0,0,0v0h0s0,.06-.07.11h0Zm-.09.1v0h0v0Zm0-.29v0h0a0,0,0,0,0,0,0Zm0-.81v0h0v0Zm0,.34v0s0,0,0,0Zm0,1v0h0v0Zm.11-.45s0-.06,0-.13l0-.07h-.06l-.05,0,0,0,0,0h0v0s0,.07-.11.13l0,0ZM147.52,51v0h0v0Zm.07.51v0l-.06,0v0Zm.11.63h0v-.05l-.08,0,0,.07h0l0,0v0S147.71,52.12,147.7,52.1Zm0,.09v0h0v0Zm0,0v0h0v0Z"/></g></g></svg>